<mxfile host="app.diagrams.net" modified="2023-01-03T21:05:48.980Z" agent="5.0 (Macintosh; Intel Mac OS X 10_15_7) AppleWebKit/537.36 (KHTML, like Gecko) Chrome/108.0.0.0 Safari/537.36" etag="N6C4blXqKphZlhB0j-3R" version="20.8.0" type="github">
  <diagram id="C5RBs43oDa-KdzZeNtuy" name="Page-1">
    <mxGraphModel dx="704" dy="341" grid="1" gridSize="10" guides="1" tooltips="1" connect="1" arrows="1" fold="1" page="1" pageScale="1" pageWidth="827" pageHeight="1169" math="0" shadow="0">
      <root>
        <mxCell id="WIyWlLk6GJQsqaUBKTNV-0" />
        <mxCell id="WIyWlLk6GJQsqaUBKTNV-1" parent="WIyWlLk6GJQsqaUBKTNV-0" />
        <mxCell id="WgaqOi_y15p2v3Q_tbm1-1" value="SpringBoot Core REST/Docker Container" style="swimlane;whiteSpace=wrap;html=1;" parent="WIyWlLk6GJQsqaUBKTNV-1" vertex="1">
          <mxGeometry x="80" y="340" width="400" height="330" as="geometry">
            <mxRectangle x="214" y="340" width="280" height="30" as="alternateBounds" />
          </mxGeometry>
        </mxCell>
        <mxCell id="WgaqOi_y15p2v3Q_tbm1-2" value="Services:" style="text;strokeColor=none;fillColor=none;html=1;fontSize=24;fontStyle=1;verticalAlign=middle;align=center;" parent="WgaqOi_y15p2v3Q_tbm1-1" vertex="1">
          <mxGeometry x="20" y="40" width="80" height="20" as="geometry" />
        </mxCell>
        <mxCell id="WgaqOi_y15p2v3Q_tbm1-4" value="&lt;ol&gt;&lt;li&gt;create uri:&lt;br&gt;+ &quot;/person&quot;&lt;br&gt;+ &quot;/role&quot;&lt;br&gt;+ &quot;/schedule&quot;&lt;br&gt;+ &quot;/todo&quot;&lt;br&gt;+ &quot;/report&quot;&lt;br&gt;+ &quot;/msg&quot;&lt;br&gt;+ &quot;/warn&quot;&lt;br&gt;&lt;br&gt;&lt;/li&gt;&lt;li&gt;find uri:&lt;br&gt;+ &quot;/persons&quot; or &quot;/person/id&quot;&lt;br style=&quot;border-color: var(--border-color);&quot;&gt;+ &quot;/roles&quot;&amp;nbsp;&amp;nbsp;or &quot;/role/personId&quot;&lt;br style=&quot;border-color: var(--border-color);&quot;&gt;+ &quot;/schedules&quot;&amp;nbsp;&amp;nbsp;or &quot;/schedule/personId&quot;&lt;br style=&quot;border-color: var(--border-color);&quot;&gt;+ &quot;/todo/personId&quot;&lt;br style=&quot;border-color: var(--border-color);&quot;&gt;+ &quot;/reports&quot;&amp;nbsp;&amp;nbsp;or &quot;/report/personId&quot;&lt;br style=&quot;border-color: var(--border-color);&quot;&gt;+ &quot;/msgs&quot;&amp;nbsp;&amp;nbsp;or &quot;/msg/personId&quot;&lt;br style=&quot;border-color: var(--border-color);&quot;&gt;+ &quot;/warns&quot;&amp;nbsp;&amp;nbsp;or &quot;/warn/personId&quot;&lt;br&gt;&lt;/li&gt;&lt;/ol&gt;" style="text;html=1;strokeColor=none;fillColor=none;align=left;verticalAlign=top;whiteSpace=wrap;rounded=0;horizontal=1;" parent="WgaqOi_y15p2v3Q_tbm1-1" vertex="1">
          <mxGeometry y="50" width="260" height="270" as="geometry" />
        </mxCell>
        <mxCell id="WgaqOi_y15p2v3Q_tbm1-5" value="&lt;ol&gt;&lt;li&gt;update uri:&lt;br&gt;+ &quot;/person/id&quot;&lt;br style=&quot;border-color: var(--border-color);&quot;&gt;+ &quot;/role/personId&quot;&lt;br style=&quot;border-color: var(--border-color);&quot;&gt;+ &quot;/schedule/personId&quot;&lt;br style=&quot;border-color: var(--border-color);&quot;&gt;+ &quot;/todo/personId&quot;&lt;br style=&quot;border-color: var(--border-color);&quot;&gt;+ &quot;/report/personId&quot;&lt;br style=&quot;border-color: var(--border-color);&quot;&gt;+ &quot;/msg/personId&quot;&lt;br style=&quot;border-color: var(--border-color);&quot;&gt;+ &quot;/warn/personId&quot;&lt;br&gt;&lt;br&gt;&lt;/li&gt;&lt;li&gt;delete uri:&lt;br&gt;+ &quot;/person/id&quot;&lt;br style=&quot;border-color: var(--border-color);&quot;&gt;+ &quot;/role/personId&quot;&lt;br style=&quot;border-color: var(--border-color);&quot;&gt;+ &quot;/schedule/personId&quot;&lt;br style=&quot;border-color: var(--border-color);&quot;&gt;+ &quot;/todo/personId&quot;&lt;br style=&quot;border-color: var(--border-color);&quot;&gt;+ &quot;/report/personId&quot;&lt;br style=&quot;border-color: var(--border-color);&quot;&gt;+ &quot;/msg/personId&quot;&lt;br style=&quot;border-color: var(--border-color);&quot;&gt;+ &quot;/warn/personId&quot;&lt;br&gt;&lt;/li&gt;&lt;/ol&gt;" style="text;html=1;strokeColor=none;fillColor=none;align=left;verticalAlign=top;whiteSpace=wrap;rounded=0;horizontal=1;" parent="WgaqOi_y15p2v3Q_tbm1-1" vertex="1">
          <mxGeometry x="226" y="40" width="164" height="280" as="geometry" />
        </mxCell>
        <mxCell id="WgaqOi_y15p2v3Q_tbm1-6" value="" style="shape=image;verticalLabelPosition=bottom;labelBackgroundColor=default;verticalAlign=top;aspect=fixed;imageAspect=0;image=data:image/webp,UklGRhIxAABXRUJQVlA4TAUxAAAv/8A/ECaN8/8/d2Mn+f//gbv+fO3tu2l/5bWPTtORROdD7/wYB2WemXTfhyzolvFhZilnxDIe0yFN88xclF5Oqn1oou6MuUuewXREE3MyJhpEVapN7/AbUQWHnuKjySJqmmnKbIaIkh7PVSI6J83UxXQQO7lYcMswh6YZ0ZTekyuK59DBEeVG0WU39O9c3yt6TdPlSRMdHFPsQ0lxmEXUJ07viYUyjsJJNRuSgKBt28ac7tIlRpKkSNLrrxRth3fPMu/+vzIUsG075Fbn/2dmvbHt1G1sNKltxanbsLbNlHFyotpGbKt2bG24u7OzHyzYtmtI+3g0jQ4ibnIlZn75ccmSlAAIEaFEGLduvvpOTSBAgLQgI9CARBS3/sijlp+36UMkFI1c0BHWtmBdC3JxqpjruetTNH3cLBnIIQwij5egJff7bm76uPLaokQO5JLB+Obd0TPFa69sCsnl7iilI+GKFGJv4TaP8KvumMs1lVz7CIxLj3BtE4qUAiUoNjs405RyZZwh+rjisYMzTf7gERKmUfYiJKT4StcaQrnLjobmRUiy7uiZdW2Q4uVuECKJwg3Li1BKsooSCIqpXe66kzBI1FPJau5EUAPyIkgYk1yh5EZKHmhql7tD+AH8+A+KeaA+kAN7SAE3mLtoKQxNJa6jqxqaSpyoSK65OKV+KQUQCCLhl3QDQQrJL+0GQgq2EdzUYOjSYnxXlzFajHdCkIepjIigaGZRUYwR0Zd1B1As0iQgG7QX6Y6eJnB1aSpP9FLQEbrO7wASmapBSedEDaIJRMiG5EWKLw1NJHVN4UVQiMizS7sDIlVjK3rywk4g9IscKEU2YC/SIyToXUrdDSEEhWUXdQaUzBpfbUWbL+gAd4VcubuhepF2cCYh71JK213YwpLayQNqVdVaFehbwAhkzxsaSC4qVXJXV9Y/+4lafXEXEMkQOSRXVVXra1sW1SuxJIpoUiFFOfl5AUwE6lkFdE3yB6gS4EaX+rW4oGmOOlbryFqVSFck2eTOppNNlDreuRxW6qJmfXdZD4Cu8ExTOgGV1SBZRqPJZioCc1EnQC2jFNFUAhARMyBe2wQvjIqGCmTntwfQCWlRhJpI+inxrYlkRmPIKpC6qAz2NpFABCVXLu8J28NYBF544MKOAOZxtqmcLbzPCzKrsUdSsmOS6ik2kQA2+HcLYExMNMwg9JywnoeaQnYS0nnhnKexsZn5UdFnEcWmkCmi7FYzlTjQMJjPI2vY3wTSS2FuqWLjwVSW8qjMJnFwhqI1oy1+PKgNdV6YlKq/sINSCqnHDHfU37agoPwBJy6MRdGu6BAlRMp6kVKPR6hPswu16ZKusBTXbFWdriEFqeBdit+LlFrlLpElcvVVI+UIJRsv7goHTXxYk35UxIAbI41zCZbCECZPnINQyniX7uiZUiqVu5WMd8f6q5ECCAL/2qAX56AykUWWEUWeuUZAsRLqra1jSfUuJeJFSqVy12KgxVKcSkaNlFlCy7JdTrzsvbwnQMcjwrYGhOIBXclUKTdoJjQHmiXlLrGC9AEfdigiJFtP17N3qWLCQFOp3F2D0FRMfOpKQo0UBBPxlCZkKnGiEtqVpBHRgxZKHUIyQJlUuzC6sP7MFnUBGkV1vj2UgToA5ghqJBG0KVnepaR7kdQYzeWSHiJf49+7MAkemZ2ELCBJOt6BCUplJFsyVJ1xJ6u5U2qMUQFy57fBpFsoSfqEN0goypjkbHK8S4l4kVKJ0Ma/d11J8UhBQlFPScSYeEdB6aLOkOsSSYenpRhrQsdxQuOsQrLhtrB4SVdYgYahJ6I55One+qwrpAlONCyPlAySlE0eiJdAWxCZcSoaNVTGaMUzbc3puR6oBFpE7t+YqHWZSCqauN+pAXmkpigkF9o0uQpMJnCaW2qT4D3kmLB1neBdNLENNSiP1FYKkW5zoMmWterPHyinRcmIRYIkZEUlbnc1II+UCFPKMaO+1eR/MOpD9J4H6S+gCpORu6qffFcDy5FJeEhjtSXUelDgmOZJKX/ub/zpJSrxsu4w7NUHNjM4KVWz7naoKRjMEiw/dsAP6gFjFvMSHx5pCiYoCJGmaouth147alA5yaaAQ0QudrYFJvmLBCOjwmweahI4R4mFRJw2SR+FustF0niCTQI8Ryje3a5hsucNZpE2kTo3NhFMUcpEGMkJjGOSOk9HgqxoDmfZRMB+Sg4/YC9YTHJvF13RPu5nkwHXBF3gJxJlTs6HyVzDHy4I0VzTRGwy6JslpS7XppOGNTqyXBClkkNNBltJ4IKUjybvGz/QwcAVxWzomwgOkUAFupmrrRo1SctuXZHNivaTY2wSaN1PEtqItLpmSTMmGRijzoEDLqr9z/J9htgE0HqIpMCVWotUlasLjhqblCWcYM/CsUmpOyIN9pONPVJo9viG500RZ9FF4Xf+WFu7Gi8JyY3JhN74/GQZqRbNZ1zP5u9gXEGZaRTKXQSRoMC+WIxB+JptG35ADBbkgpxC6nOF7PSBSsYEiVuZpuK1La9tQvkYUgsFntdEhPCW5HkXG4VyNykRSsj4JKUPrRFFi37ces6oL0VPhGpNQglNxjiB3z6+faJYXvnT4Dmy5FYLM05jU4pEFJ4iTu9iY1Duer9njsGtLIRQf0kw/rFQCBKNVKCGjxWyYdseY9XGG9GCxfGFcRQ9Dkl3NXdpOlu+vCdkQf8XkQqVmJBxZjQlJFGRRag37rLyhl7ubrVNKAb5oBAU1JVQsAeUIV+RLmEs5xYmcwekpCNekIl7fUe9tOvOray4hYcoTKpoTOov8lJ0ErUQ0iC55Tjjk4QgFP08TinZtWiMSazeTeqEKPT0WC26Ji/oCKW0aUOkiKziZBK605hKGhmEEpFkqXvIXVT6a0I3RKckO6G1KA+RoYgdaaEk8mgD9Cq/aEyya1FpgvWuUihEdim6pqcRpsU6FU3UxjDOsgslxUxYZhMzNNaYGFRMThttQiSSO6YEuVFE7RwS0LYj12ydnUqCjSVhSX5mu7RJ0XQNKWJyJcWT6qi2NyVYf09ZCOCZpAIpgIGS16SMV7NS/8TgJ/nRzb8CDeecJoTAHnalDvJ4MhmiSPeuOb8pmYaYkqhPpM2h5CIyEI02JdhKswtdIUIkueYGMASjaa8JmTbpR0VMiaCkMkZB90/nbJOBySC0K4klRDDJi0CaTckifiWNEkOWPMEk6zaigVKTMdvqoouKqYenjSU8SUe1q8n4PkxLjUjMeC7poFioH9nVpqLX8U7RFfYz6awVEpUem28i1nFGSs/9OPVS5VbqdX7QNAlUdNGV2s/9TDrn+EPcxUzT0B/sAb/fljuSz1YKpy7vBXvDpgAvnM4LPjzE5CMiKWwqd9gm4SeW8/dmvQhggtnrWhB6TcA6Nszok/NEfTBEkQkQp5sArJ4siKLqrbkBgQ0aqgOm8e+XskKjoMgx1pMkb/J7Mo39vCCYroEV9VbTeD/BuZldQWOf39K9K8IDTrGeOE6wZrLda+THOlAF3YI2WzdQTwvePh2aRn0h4+/JC7712t7UCana0UHbmBPqLvd9iOB67A8RXC9srzTqC3VkkWZItV4bWtlPZPnkSNB4T1qF5KYKzeYs65EtlFJH9ZZWnfqO+1at53hqG97p84LMjZ3QmfquYj5G1OO54XrO81kNFofVHD5gMg0tAptQD5fvzfpvuFIIurgrdNj6XNhanRgpz6VLhdrBAXVsAytr2lMFXYIeW+sZBBGlKdVbbDf1et9fKvVAH8Fm4AZ5g12Siny6RU3DWmhCS0/Ee9b7aIrCnZU2z9TjzneVhCGwmhGSbNlVbFfbgPowaF4RdvMM651+oub1TFRMfUb+FjCTIhfhrVSfqAWaSAqL0w1p4Bs9e1kPACkcYypIDFL4cmFHWMrU39k/vCK6TNSSdL4gvKYUBbEoiZobbjAD6+kVZaFozXYET6cC/RTtuvVkxdbbT6QPSxnDoKRaJ+9aBg9IUmK+IE0wDWfrC5Of+YMJ4ZQYD/GPinpLEGPCemJiVPhOsGRy0NMMclRk9wMk8yn63jPSQHpfD1TBkDCZsyRTYwSddhfUqSfma9+Tny5/0Hhrm1DLPHBf+NqESmsHG4iXQQdzKnjznkwRxviukraqhFFTX0+6oP5SsEmvWg3mp0sibyL/si0N5Ae7NStZTYhkymiWkvCVBbX1dQjSIltCmTNS4oPzd3H/NyGbtHoNwtzWAVMTbU6xxgXFYIm+ji5ppX4YnpO6S4mJ5NcD9oZa7SG+PZhC1L3ysN8gPg+058FOHk2p/ghRPuV620jY0iPazncGp6FcUS509iUJhfS0VBrE1gbay2A/zzHVBLLzberXTyTwT5WedY3YJLkWlnCmdMpR2wC2NhKUwQHKQkwxpoiy6lbfq5cu1G4to5qQmGd7NkmMpLmsI1pJ+d7TkTAv2su/2pdyYymCotOd29Wrp4jgDFYv6wmFQqHa4atvUn0bjh48dUwUxo2p13OIa0WKamvNyfwFkzFmolutVfXUW5VIIXrxii7bIL5dLJ7fBiCIJ5iKOkORY0b95By5MGNCr33pbHepaNXUqeQSMaWa+p8Xs4tgcco2qnqIyEG3LWMS6SrqVRzjdy0tbJ/WUv7ynnBM6IG6izZjGlIpm+rmGtIDnFP67Rrg45xEqkaDiemu1Yn29pb2VWOC9vaWrpH29oPzC+PbT7atr8pz0+TcTM2T6hKyJOclqySCzzLa5fgNJ59t1Tm7An29LfcxZWkl0JG0Zw9oRWuT2Wr1plI0Vas9k7WyO/MQKz0qEks6hQrkoXBGKuB7AYWIoKLKah0NpqDFOjpwoIB6+xSp3JNniJpe1JFTX+X+oO5xUA1Cq1SnVK+k99t9YSBCRNdCfc/53JJuUZtUg9Q3qOLekudI2jOBo6gQaKXETWQq8HvrGOtH9hG1sjbdUJxWga/juTy4wlR/uRBEUggt7xGYKnKGMmwUT+BK8UWC7yAl+A5XXnnzne6EEkj4Ip4URxa1Rjj646pbz9Qt6wQltWkNGkYpQ7BrclEqiBRhpri2Uep64WSmjLoQb6AO7d46e24oRkQVzcpOVHzTELLZA20u8lOwZmsfU50hEnrWKZKMuKJbSYvgU3zRlebU/zrI6HKujLpzM69jA9AJnneRSL4rJelwRffI40kCMhYNFkc0tUeer96uvCCWbGVDea/YFIEQqpoDkuEC8gHwknSa91MUvnI4k9Kzwow2qysplUzkxo1sIOqnSFlUt7L37IpQixgmLZ6j3s3tUid177ZGu9pqGeg4eQ0bjmYpUoWqV3adzSOdIjdC+HTirC/4RRlI9VQPpuoGjafeeNqFKoE9eY5sUN3VoKiw/YpsBdpE9ifFXJcs6PEqqbmMtbo0WL6L1MHz/EbsZwPTca4JC3reKZGdTOdRsWtCJiW+9xM64rYZtaloaQ3s7ckjr4Vx5HE2NG3wZoDoOR0/4EI1qEncmARTZwdBauFG9fwUW6KiQXOuU/gFrSb72RB1lAQR69rg/A5wxd7am0qFMAk/NsQL7ZDUe/ekmlT6aKyaw+qCQejofbi2gQTMhqmda4X5REJXuXlzbu4/vG4STv02rg1bKHHPaqaSMrdaq8GwMzeBikOM4pjbwDb/16GsTt3cVv4+Qjh5dIqJaROv/uHu3kC9FMlgGqfZL+dEjwQr8tBpNmT1k99vrQnHbtxbnBNKJe7k7FCi5fafEpV7WXfY5agfpoBPwQubda6Iei5xjmgauoGrlYScUZ9c3dtWK4nSEHNy/5YE7U+5XwT0qIDIujWw9W1n+KsLadcRPUZcyNZeNgLaz/NEgdMjF3eFA7/IW5GMiq68FXloW4IpNXQ1n16o181b49np8aqLGhElQVZk7zk2DpolRVZCZr5n17dOuyLRL5YyJXlmYyIZFoINq5MnK+qZ+spam4HxSq2MagKnUMbkuSk2Gtp5iIR8hJ9u9axEUnSlRoVkkRPJo/3xB/Ec/63U9875g+okvzOBGgvRB6udOaTwSf/N+j1rZaOibacpcJDdULtbhaS/KO3mJLlCMKJKsrc/3tXvyV8L/V+rbjZJXikwGpg9y+lyHrQiNwVHkme2sNHRLImogMOiDveCDtAMiYN8Ger6rlJzpcEnyX1TfXGGELUC1dbpdFQyYZA8Ayvw2prT+RUwLDyX+EBKGz6xcdIhUkr1u0C/8nn7vjeuawO3B9X4H8BKiXpksduZo7FN0F4KakJcqdY2r54xyfjO2tW2+Vx5RTImyZKEAiOS63ej0dLGIyQMLrLu3tIEtzp8++lqYfILS95JHUA8gVKdPMrW2daxsagWCFEej17OtkkYDWyCznPfRxgJPazZQk0QgTdI6G1Jnt6/k42atuwn+eSSq0jzMbc0DI0dLj5dIfeQIFNySeSLWD129Fbx+rfe84atEgrFfgA//juvQUhtFDU+xLHAT8RTb70WET1cKZVdRf0RkhAfiXZEzO5jI6gNHyChsAxkoLonO6vmfcHYRCk/UxuQdP1wIU1yQrQRzBIm3QPFifkAHBTw3n48XWjU2HBkfnuHNKG6Ush9A6lXwl7B8bYkT0vIHWwshcL9JF/ypUEi9CddKJcGgPizn9TSpPvPn664VxhENfx70QfUA0mCcFU4jTr0JaUiUCGSbahwsAd1DDom2gdS7pqOhjEa4bGcbtuMYtLV9R7LZaRB6qFoj+D+WyN2Zf8YG1edkcIkIQ7kjDrwzH8j7boXdoRcsOujbi+RtGuuOpq/pBtc1h1mHrAXPETBXZlzL+sJD/FAveGB+8DcKV+1IiW3NvDs6sHDu/ZKZJl0tVYoVM+KWkRvRRcEXzDxmUiyTyB72Rirb/YESYoUpdwkEZIUoebraX5mbrKU9jr23gs1Joz92496S0j8voIESN73Td/yLW9/r8ML27fvXe6oZNLrWnBBBzh2SVcozNRO3V7SDHKh+D8kLJGyBNzI0N+wjY25ILwvIhsKGwaaUu4gGJyXegDK/8ZHtVfzMw9RcOeeLl/boHz+6cornTMPMTN3rBTc63rUvx8u9eS1hQMvK+UpZSDi1L03AaKPTYCGTlxTJ60VC/0CYCDl+AGoYKk94IxwUyrlRaGX0AdRtigPFH7Rez809E7qJXiEpEsSwDVwGrVfapvgI8xDHIEFUP5mMBDrSIL3CYQUYpOivhPHk3TH7Nu/dfZErHWbnM31797dD/BQVDtlCMKHdu/evWkTgvv6PibwX87Zt3MDxxuOcc8pBDUy7CSfGyX8DmuD2FCECK6ScMjGpRujoPMDhBbUgKRbqEbtaBiINgmlDwkNSBolt/9N49LtpPDkQfsPueK6Nhh94L4gOpL67u8pvuPzTJaKxbuAeJ5oVEa/6eOtbcJSxdxYXUCxmPKSsCXN1b0tkLwtB1q/FhsVroJERUeQG1sUBgRh6vNvIFGuYk1YlBJJCRsXrry2ZFQrJZTovg1gD39fyah6peuBsJEZXL8BU7r2ytTnvs9cdw8bm0HD4cprP1ZFhhLwCkuRU5F5g339W1Ijgzm1u39nJBt3i8jepHBiX2+0g3AdhOMg0ZDu3Hp8LAn0bSQ5Fhe9/STJ1uvOMEKHdiaD1jonKr42WvvjCHfvuQTpPUKSlGJJ8a++8qoX+vWRQTkRiwRCest9BUGks+rEiUTZRD7yl4mr27Y+1M8tcgO7n1f4CKqgT6Kae3/kX5JaJqVL8lxromXFxyPbWvxNV0kE8eb4XxE1S7LrtSWPoI9fFBTc/6FRr0XpwvknE+zWhkNy0xCvvF+c9B0nEZ6UJ7IflQYVSP18pTtcC/W/0ncX8pEUYQ/kKfDJLTEeGkkgpD2ogduhGv+95Ilw5u2AGrlxW0KcIdAFd4V+0ShUKBiyL9YhhAhSZCO6Lvm31oLOQn5ydPKizrAykxWGhEypEEiXRPBYIvnH/eR5DQKxF3YKqaIi4c9XgAYkPZJSwSfm1UCuNSjUqv/z7UqFmUu6Qj7Cc7ByeS/IW6l/UrHAmzwat93ZT343yeVPVSy4tWy1VCxVszW3sM4CVPPnFLmRR0/Hy5HoIS2VStXJ8swFHQHpBRko78QG/RR5/YbOXPCmwguuKRQdQJB/RfI001kNJLRAH5junp8f3gyYXH4F1S+K/3WJPLpwnIR0RQdRn9R1j2XXv9ioNiOJ5IkYTxYgfqKv+bmihei9C5BsfnrpYMfh7YhMq53VTyNaSArKL1OysdnRysf9jBJx5/kdAMgXhw9KMe0Dprt9dQmhF0y1swSyBe94q0js6I0R0rAysXpwYe9qcSULvRe5JkA/N65tQvasJ2HSD4nwGQ0E3XotSEW4bue0rd131BpVoya0S8tFd1qUJOgRwnHO7CckeKx3cC/sCJnhtvmJLsfsLUG9jxvtethCycRPUB5dWggdo8aoqhov9G1782rt2P8VNAiGikFMeknJSklL4RQkbQ/rBlSNr46zOhzks1KpkFpcXSsptTJmSNVkQtuyPFGbgy7zaJycoRAwml7Q0BSvlShE4ygJ1ki1ubrgO8aPXjfLX11W9w4/lpyKZ5vkN4L+FIqHOwKr1qgxgdMlcYy6H2DrvcrN80EQEaSK5/meV9Eg8AO71FEQtQpLhO5qzMEm3mqTkIqp3SKRWvWNGq04NvScihrjG99fniigmkXu3B9HrF9XBBJzcWe45eyGkDoaOi3TS0tdjlUb+lrZXvwqkAF3xsU9iSwrpQ9oEE5k/65ARWE/zwshic9Xr7Ba8b0w4zstB5danEqoxhq1u0plIY5sjck5UjiWHd3breqpqjEaht0tTx0tRrz4XHoxVD/MVA5s7j6VKxbToUDPm8Aao/Zstv2shjGY5deBigrTS2qcQANveu+BimpX8+GJQH0TqtnVc0rwJYJj9j/gAwrz02ocW7HLS+nqhZ2gNlkyC+2OesaGXkXKjSfiQUISmncqd0CtoyjJ5T1BOMFDUXYaUvqJl/WE+UENrVVPxDTvSVdHR7PrWmCX9wSOtYFOjN8ZebPmTSrmXveSojuFyrwa32QqZnp4edfy8heUKmYkU7zVDyMvC+MD6vnqzXeNzowOg+HrRUP3KhVqXnOo1oTantFQY10NkPYTruwK1bdBpqU5l5+pFfVUtuBW5zsqGROEejg9KQrioajMUqQDvq9sDtTx1CycWqndA2kC5Z/+tV6nVKguDNiKrdhV1GROxcFuQq6bS3vUWl2soX6IhHVtr20UKf08V0qCyNUEVgcWip2T90BaoDqhBvn94MXC5Mh4RQOrwa7CyzPGXWoH176JJK8Lm60aG2QqbTq6UpjprCIlr8stG9hJvkVhl7ehHxnMZyX1qAtfHjUNaAPFvwjMwRzokKioeElXGBhRzw81DGMMtlFQhD6XN2vFehoO37LyV8EHcALyF2ZLuQJPsBQVKZUmtORrB7ojZg6eugVaRCkiaj0GQQn6Ut6lofV0oHtOkEgeSvlBZginleebCCgBL+GSVPNKdni+WyQuoMpjL3IzuZXClJepjqsxergqiEST2Fs3AbnIQFK5l3YHRKJqHXWWi66oFyRDq0Umt71u03sADZT3p/zt1bIUc1D9ILO+e/iY7VFBjwqbjYZW7XDaNe+NugNui65I7RFNZ2TPbZS6eef1vQ20o5gXZUKzot61UM5Szy/sBNU2rVhV1RgDIu86gUSt9XXCul8AtQfos64eW7IOVVHONatvfV0qiYalxke/rwkf3NdUa4zuKY1KMsA4RhFKEQoX/XWPVWegv9AEonAM7ndfoihKTCXto8PqeTpY2gxcoyTk5yiKmgFS9SpGWw7MXQ+OibQYTYgX6kU2e1gzgXqHy8JGzkZhG8GFwlmrxle/o/xQyDVhmpiYJOv2hwh8nm5PRYNQD1/YEZ4UBJHctH+qj0N9x/tJfnVRV35Y1cain1KHCtvVs54eLGaFqMcmuXW290Tr7L5WkqjtX+lYc0SMXM6/1jpwtJu66GhBkGZ86+l4z/XICnKqPzJWtPaTQCBsE5VBrajdkCKnGAMp0dUkYoQ0HBtX3+pgOv3I3Bcl/RLNzLb4GT/QPWJCHnqAMiQlxJmhDfRBeINB+1zQn3KbWk8HSsiglBmlUJRkGllybCTQwNORoPzJUOYkBXRi/746pt4YBa3PdX57mFbr6cKxV5ZM4sZZRtNULwVdoXhuMaM2Oq0Ek8dPtai1Ol8SJNAK8vV2xjBdkfGiL+VFdYynmwvCUe6v++fRDWi3ekYXRiWt/4/9UW8Kp/tJQlwSwYyOVwQiKRUi4yVNtQU1gU5oVmotX491dR2qfnJQjdU9xVNgK7l7Z/S0vZcfgmTOTata3V5AdnF33SP7rJLm7JJaq91rm5AVDpKv18oYCeKdOrdraHQ+K9UCGRGiGEu7KYPBizmBVmujso3I07kFNVa7c5AU8uK+mFmVG/gU9y83qw0zq+mvAiwZsY99RL2cO6zW6p4q6EON5+Mzhsb2k0d2MuZsqUECZ6FvckE9oy1BXrSVx6OdWFHIynAm9HQ1HUgWxVMb5AYSlVXrMMY7UJNkR7O3PqpwUj2rA+mcyJdrm6iX0bWRPwUZ+2HG8zIT6e2CHQHF2NpEoj6WF9RE4ygh+7RxjLGViQs6gtRqoijG1j4KXKGq1qae1WZXyIi4nM5RyqXkhcZ4vleCZvPxk5Lvdm6CeqCdN2YX1BjtGpkD+6PfRGHwRH+yI2oDv2VSEhBXq2PXUTAW1WRFMqNhWJLqlhJEspMi/fvlJoJK6FWywJf74sgJSE4XNlsTVpbLQkScrZjNElKG/mWX1NRl4zaiYtxx37G64KKi4vwjF1+PD/cHSxNqK54C5uuwlzzBl3QX1Ya66ArnuI9JAYB29+T2qDUaQrK5n8DTUQ/Th5cXA+urFL3y4uyPy7QGHqAnv6Tqa8fo+03VjTnQoUu7w0LFt9q8As7G1To1TAr8yA44RgdrqGLGq+v4XNlV49dliCLho5/fHiaM0YNZ6Perx9vo4T4K/vl5z1hdcCVx69fo47OCjtKAr5npHvDzttySHNTRrlUNrJqDK1JnORT9qUxRVv6gDXTgJtD11hyKyRAprNeqQKsN1XmaGWRn3fyX9AdL1Y8Oqur8KPRljUWxLyZTRDmdylSM73VlhZlxN2O2/shJnpUPB3U5RKmZVS+0xu55OuDHrYxT0kAE+fnpjFqIKUG9UpocOkNhfrbFD21lOo/4cTeTg1XHUc+qHVyRukRG63dQYnaXtHHULrj3iGMXtpFSZ/LpA2orGj7NjOQtI3WCUrZhJrTGG8xD/vFcJlv5nm5boLqUF7ITaMByE1He53cAx5g6SFFEjkQ00710YScQ6tZZmHHrCIXltQ5rbLD0dKhA7t9K4eSdUVKrenD0fteRySFSvtoO9/dG77mVD1Y+4Jigkv5EKIvYx2mW/K6FllUNAm2ZLkjeS5PLsQh2E0S4bZ5aKab6oXE5DbcRSXHHVcPpvCQgocZ8IAr62tNdlykK91cWVCsCPSeJiH9MEsVHNVZbjOqyK6TxxBoQpR7PLah6wwVwhJuSiVV/3AW3yI0xLhNJYqFNNbOnhhTGkzxALPDMHffVWD2QzqNukRCuO/jUhWVVXXShlDid5j+xdtBoJYcaQulyJxMYoW4XdkVZbR1IKLuwEywZNemnkTLnjviZ4vO7bRl1WrLId4QiYWJQOTlt1dcvKXLhtiTiqTPuiuIYM6W4VTuEKp3ssGq2z0guxYwmWwnpiCrcRV99R5urgbAhes5blF8TyYx6h+fA1vjuElJsqV/ZdqMHJz+HGIgJaB+FrZd2g0VTF4SD/LulRXWkR/Q5oTi0le/WuWzUhDmpEZE2KeFKmqoSRrWlhPQ+K5k8PPUW3O9KjsXzlriKeoNlaEOsg7iPwBppfrrNqsbTvceeE/KggPuiefIlv7JdRm0lLUxnbzxI8aW6bmpXPTz3X9iXAGcoWlAN/AiuIgH/c5UGVA+XpZ4mGFJoSbbLUa3o8N1JSPDcpW7V9lGpz7uTiXrtM1AaY8bTIYq0It6S6pjSIxPC0RibIlj4lqM3qm9Vt5ehX28cI0FA+EjXTauqNi2IBQuOxcPVEa/dXS6AOErhBDhKxF01UPUjBlJCqYFSqLrQKUkghBNgG0WeafVVQw2lnOoey/maqJjJxOnKviQJ4bjekRGxOyrlGvU4nSCF0GppWQOjFpFe2h2+LKQWq6kAkVAYKPmqfk409MEciodbpETFcAMgJiFaCRw89SIGt5A3I6KSUW0uiKJ5NAFOUMoxVKPqaAZyiQhpoDp9DBQnl/bsKxFiMRZjFIyFsbRV9dUXOUWLkptIyeVyZlo9T73xguSNNNl1W+GPnZP5Y2RcgztEXEWuVCpbEzqKUs6hhhsGUP9V5POCvsiQSiUnFNKjROwRRhG5qlHzrzZc26V21dVR1OetSZ1YTUsTkKW8LvZApPY5N0wAuZ4CHpyK0q9tR4keuR0Taiva0n5pN/iu5BnGxk/kmZH7SLVV21Xn86IPTERnKFqabfFVu26SdEr4pBRXqqnabnT66cArMqEJ0exi4KsGmXGUFSmwhJ/ZCaMtJaTnpZK7SFdJpRbE0eiFFOdfVEesOl1ZaDln625f0BKVueNWra8d6drnYRyJ61WRllxJED1zfLyeUDc6YbW9KtX4gxPhGkodLuwyatqzUj/+IdkrVE4uWR3Igp9iUolwAyUh7qJRddJvuaE8FWTXpgP11XlyTiUPY/RA0RHNjcO0ebvadKjh3gJygFvr7KFo6r8oX+Grb/RwNQ0FEw3UF++emBIkuiouxij1rLyoajUj2Cb2SB2Sk9+japdqQg55jtC9lUXV8JSElkxMxO7oJeqOO6warlZRrffhLCUxhStUg2YXieTuJE4Yo0ulJWFWrI9nCKIu7wknrepyGbyNyMDshPCtbfq7jm7WwPi6d/Jz/gxKEUn3Ge8mOFm4wlF/3P3zfL042ZD4Q1MgRh2jurfwYwjhW4cO2tc5bI1ZvLQbSHZya9wgiIja5yoNhJqZvrgzvB25j0JYhNmyJy/JS+psDX2dLy2LvGN0x/m9J9s9Y5w0NIoy5mlOkdC2dW1QOqwVT3VXWWgAk/h6TDrb+DOqqzZcb0ZBP9aIzbg5xKd2l301/nhZ2MLdABNxSvtBqPOTorrzwIlMQ2Fzh62nzhUF5CJnWwlcf1joWRN6pXvySDLzHdbXpZteU+TJrdFPqETjOYst1oTLLnSCh9bflcGFvM6rY9XsckEZpMl99fLMwNtKGqrt1tqO8m+liIyTWb4/JFMnUN/qXmQ8ASLX9Ae/34UdocOaYD6PBPKGOBnibZ4vu6rqm+6s1BweIb8W8veCDtASGJ3O/3SeThKBmkCD0Opy9UmAW/TDOUWQ4Qo0AlYHSqAX6JBrhhQeuAcG1FidGHTBU2lj8Tjrg36iLna2aagDVaELaMcZ8J0kyM0vqw2DpZqkMDKkor1um3qZliqqDVKPd1ePEESvDKvVykAW/PlaEREXRHWO+441B/NS2ymhkkPGaKZLjbXaVhVGRM5RvzxEaEZ2wDeOtl3aDSRphLSgEvewo56n05Wy5Dp5nPXCFKUs73KqYh0dL4MPjM+S2k1wbK5NjQb++IpoM89EvKRA1F0a8QNdKIN3ZG88vCilfCZXbcWEerJwDx4iJZgS+1NOaEJtT3f8Z0JUUjC6EBQ71LFWm8/vANCQyCHGClBBflqNNZmc6BhUXzjpqWd1Otcj7CTPsX5gP6Vi3b1qK5nhOVEK40i3x16PUuuyoaPW1+4s1AAEdUIqOtq5S/0wszAnSiVnY/OUBC5AkhtQa72Roqj/r3MoIu5+4NMdVmu1o/rgkCtnt8SilTwUmyrSKQlYuGlQre9rc1YkgmyjrbCJ0JyeVetviAf56h4NPKvL2WnJKq4pPBZ5nM6JcNIZo6AvGiiOqFVvcE70AE0WbxiLdQVRau2ptU1Y1cBYXVyBtkSmmlsoJfgt2Xm16ozPCU8EDq+BUHQgfOuoK3IFg9VptRK5p9sL78H9df409p4W3zMV3VN9TYkv+XpRPxwfo4iCeORQDPzSOxOa1X3TojrWWd99ELCK1m3h+5eX1QTqTXepMb7uqqF6IBf2R6R3ETV4d44l+5mpWf4cV0qaMZ56bXOgTmTPaF6BoSNjpHC4mkYYtYGj28uS/Oh/6/hBU/HVX5wTfYbsyE39USrXHSJFQbuqgkw9Y3W5JqoRk6wbIH7TubMaWE+XcsckSZAGuX/TtqGdHNrWT/J3i76Ken6cGJhjMRYpXQuU+Sfft7qo1vq62HO3N+J1dThHiY1Vq9ZT31Ffg5HLe4LwA2XGxyd3npslKShJHP4nOZT8Z8Z++spetVYzi8dC4ZqgHfm00baIwCOuQsFcpUWD0OpSSRgWLKJkdY5SKr5wVn2runhhJ3BElyDtiJM0FdkMhWgc9LCWm1frW11a14JfJEytG9JWAgswmoMYDa3ViZEVqBO1S0qJUQTNfotMtnR5L5BkClyOxThKQPQU5KveNbus1vi6PAp1fzmeierD2q5+RVVVTXcJeQyx6yZ+L4/y/a+Srom0EHu+hZhsWvkKf6OnTR3r6bS6txOi3hPwIoLzt/6mKFDqXSm/aBXIjaN7NIssYX+0uC9hiSrK65cxvs6r+6U//hNJlBihd0UWgrTnmJPIRtR3jE7rpNQqnomWuqG2rixUMhUvVLNYdT/0Rf7//xTpQSqQwl+8y6+RqsyWdaL7qzxQHxBd4LkYvMyV/HA+zTOPLqixni5MStoQo6gJK/jo7lVrI8hcASIQC0EFi7V2k5JhCfzPK3GTRIH2/Ny6NtCWB+4LwnFOJXtwnMBpe7VNjTXqS9GlzhxoeX9UysdHEpGnv1BqNF/2p1VN6Oi0XtQZhE3R0+RtfBdJQ36XZoynzkKxs4p0gwLkzhu8gdTdryv09rinFh31rdGldE20JXpIEURR4szeilo1jq62rW+4Yv6u0OAziwZ9t9Y17PnaXpX6K8WOeZQgIbmbkBWqu3Yy4kf35sEXQZF9dePJG0E/8ts19FRVK6fyVuiT+i35Kvkp6oRG0251abnLDpakWiBe8ieuozBje8/JjDo2zEy0hdW8W+gsj+amRXSQMdaqbq5Wf3ysk7mfEhPoz8rmQH3f+N0IbUq1lUJhpVYaWfQ0sIF6KGk2BwJjhHSIRF5f1hN2VdQxJsxU2nd1a65YLOr4YCUTWmuL9xMUoucSTWQucTcRy3cvn/TUMypICr+RfyjKTr/ju5e/qKeBr6FWBrWU7cnelHMWJipqfU+fA5izLyqIMIonP7GcJeT0N1YQelUdY9XxBqaHF8fHu0NfPeMEOnBj+c0k8zgVO64CTUlBwW8O1Fp1nJbp8ba2w0sTgfGNp5k9zStCJ/DmppgGznlvEdDzmQMHteKrmowxvu84vu+rNWpNe1Gq44U2EFmqFS2WXEdBExS7hxF55MzPGyVBPc5fCqruPLjHZEzgqGcnurq6Rjxj1dpAO3KofkiVO2OULJVC1aCEDNzMRARI/nXR+5Xq5iXPVxu1gZDQ+t1XlFxRLmLCI/EYl0TOpcsjEL3qeaETJaBGQzu9kC2jXrwLZ+PIixK6dnFnyG7vNjHfzhhY9SXiB+wFojs8HcGHXF/0rHWKdeqdzHLNIsCdlfkW9Wzx00Z9sfJ+isl+8cmLOsHiYMUaG30PKpXmA2/6MLGMwauvL3mOb4svcxsmpFnywT7UHQ1PHpwIHc8EFWMd6+25cU/1sh4A+sEOxpdd6iVR9j3VlVL7FdOrfiXwvTDw2ueH27S2gjRIAuOzgo+SUitQLYXiYkdo1ARRWt4xE217Cu+O6NfhPqiu3EK7N5iWdEn4jNAJ8u1XMnvbW9qnwTS2Rr1XEMxFqsuTE80jnqM2Yo56lYG2ifwFHUF0lbF0i1TfqS5n9WQR6XsGJiYIr38GRLRT+FIt1EpqBg8uth3sMFqcLEz+8bsDPcZdwrafRDyhdFTv5J1r1dypjKp+yXRp0l2ZRkrAVkjAod542+X6ftB5qN+d1MWFpRZvvVbb55cXKiX3gg4g9ULQIYTrnJsXeZD+QXZDvbun4sa61yt/W26llF65X7QJkhK0jWghIRBVM+qW2s8OH2zxu9vnx/dOlNybRFmi6YxdvCpV94C9IV2q1h6oD0AXEnd5SghyrUFAXr/rJ77J4E21crmcP1ZaejOkArklWv5SCTUFdXQjKaUBrQJRIOcFvsWNLZlMOA7G3kZUiUqVCgOTI85IvOonIV2wF1XVPleond8BirlcrtTz6IVCUWgHqSivqCXMa01S2C+pkXQLA6hGUaxIKcpR2tFHKQfJk28g1Y/UI3Ni5nE2kWsOQs0Tpb1udWZusloqVUfLM1mhQ5SEco8j73SUgodQ/Tp/5AWQbLCeSdDpiMP1/aSsoAXAT7JJsgW1RbJB8IHmSayB6nktRHK2j4loKsIYkHBfATUFcRC5ABcpR2SaYHTVNiYa0p1HSIqmghCQcP9Xvv6FXxgMv8pn++lPIuyWeP0xEiaKbiuvtSGJ4GoUh9Ez6CfI3ySlQG6JK97z4cE86LjkEVSFND/GB/1xUQ3yFJxCzX95EkFxRPgd5JVX/YLkNScSM45tOsOEteX4bIzUCCF7k9GOHUmE8/L/+OsD9Sf7DJHHdSpmfCLPxbh2tsX/j7UcOhphISJckfAqKa4YBBl366Db6iSsSdPYidnjR/ahyCObZs/1MWkamjq6rfXE0bHktdkS7fCc2NrL+tXO2WuG6uz71v4xNqYa6+vr48f9QwQA;" parent="WgaqOi_y15p2v3Q_tbm1-1" vertex="1">
          <mxGeometry x="326" y="-3" width="26" height="26" as="geometry" />
        </mxCell>
        <mxCell id="WgaqOi_y15p2v3Q_tbm1-7" value="" style="shape=image;verticalLabelPosition=bottom;labelBackgroundColor=default;verticalAlign=top;aspect=fixed;imageAspect=0;image=https://cdn.iconscout.com/icon/free/png-256/spring-boot-5285303-4406740.png;" parent="WgaqOi_y15p2v3Q_tbm1-1" vertex="1">
          <mxGeometry x="56" width="20" height="20" as="geometry" />
        </mxCell>
        <mxCell id="1ZPPYAJS0Nbkx732ppPT-0" value="" style="shape=image;verticalLabelPosition=bottom;labelBackgroundColor=default;verticalAlign=top;aspect=fixed;imageAspect=0;image=https://cdn.iconscout.com/icon/free/png-256/java-60-1174953.png;" vertex="1" parent="WgaqOi_y15p2v3Q_tbm1-1">
          <mxGeometry x="127" y="40" width="146" height="146" as="geometry" />
        </mxCell>
        <mxCell id="WgaqOi_y15p2v3Q_tbm1-8" value="" style="shape=cylinder3;whiteSpace=wrap;html=1;boundedLbl=1;backgroundOutline=1;size=15;" parent="WIyWlLk6GJQsqaUBKTNV-1" vertex="1">
          <mxGeometry x="225" y="940" width="110" height="110" as="geometry" />
        </mxCell>
        <mxCell id="WgaqOi_y15p2v3Q_tbm1-10" value="DB Transactions" style="text;html=1;strokeColor=none;fillColor=none;align=center;verticalAlign=middle;whiteSpace=wrap;rounded=0;rotation=90;" parent="WIyWlLk6GJQsqaUBKTNV-1" vertex="1">
          <mxGeometry x="248.31" y="870" width="100" height="40" as="geometry" />
        </mxCell>
        <mxCell id="WgaqOi_y15p2v3Q_tbm1-11" value="" style="shape=image;verticalLabelPosition=bottom;labelBackgroundColor=default;verticalAlign=top;aspect=fixed;imageAspect=0;image=https://pbs.twimg.com/media/D_h4u_5U0AAv6km.png;" parent="WIyWlLk6GJQsqaUBKTNV-1" vertex="1">
          <mxGeometry x="206" y="960" width="142.31" height="80" as="geometry" />
        </mxCell>
        <mxCell id="WgaqOi_y15p2v3Q_tbm1-12" value="user" style="shape=umlActor;verticalLabelPosition=bottom;verticalAlign=top;html=1;outlineConnect=0;" parent="WIyWlLk6GJQsqaUBKTNV-1" vertex="1">
          <mxGeometry x="36" y="120" width="30" height="60" as="geometry" />
        </mxCell>
        <mxCell id="WgaqOi_y15p2v3Q_tbm1-13" value="" style="swimlane;startSize=0;" parent="WIyWlLk6GJQsqaUBKTNV-1" vertex="1">
          <mxGeometry x="96" y="80" width="330" height="140" as="geometry" />
        </mxCell>
        <mxCell id="WgaqOi_y15p2v3Q_tbm1-14" value="Web-app" style="text;strokeColor=none;fillColor=none;html=1;fontSize=24;fontStyle=1;verticalAlign=middle;align=center;" parent="WgaqOi_y15p2v3Q_tbm1-13" vertex="1">
          <mxGeometry x="4" width="100" height="40" as="geometry" />
        </mxCell>
        <mxCell id="WgaqOi_y15p2v3Q_tbm1-15" value="" style="shape=image;verticalLabelPosition=bottom;labelBackgroundColor=default;verticalAlign=top;aspect=fixed;imageAspect=0;image=data:image/png,iVBORw0KGgoAAAANSUhEUgAAAQAAAAEACAYAAABccqhmAAAABGdBTUEAALGPC/xhBQAAACBjSFJNAAB6JgAAgIQAAPoAAACA6AAAdTAAAOpgAAA6mAAAF3CculE8AAAABmJLR0QAAAAAAAD5Q7t/AAAAB3RJTUUH4QYRDiobmbmPEwAAIgtJREFUeNrt3Xl8FOX9B/DP7L1JNsdCuCGAchnuTBKggCCXQDYgcggogtpfqRcUPLC1VbQqttqfv7aW1la0oqmCILAhgChVAgHJgNyIlhuEgBwhIcde8/tjssnsZjfsbjZQ5PN+vfJ6Jc/MPjM72Xn2Ob8DEBERERERERERERERERERERERERERERERERERERERERERERERERERERERERERERERERERERERERERERERERERERERERERERERERERERERERERERERERERERERERERERERERERERERERERERERERERERERERERERERERERERERERERERERERERERERERERERERERERERERERERERERERERERERERERERERERERERERERERERERERERERERERHRNSRcj4Pa7fZOAKYA8ABYYrPZDlzvC0F0M7pmBYDdbm8JYCKAqQDS/DbvAvAhlMLg8PW+KEQ3iwYtAOx2exKAuwFMBjAIgOYqL5EBbAPwEZTC4NT1vkBEP2ZRLwByc3PNsizboNz0IwEYA+2nLS6GS6eFEBsXLCsPgE1QagYf22y2c9f7YhH92ESlAFi5cqVOo9EMhdKuHwvAEmg/bXk5LDskJGzbCsOJ49hx6RJ0qV2h69MPul5pEGJigh3CBWADlMJghc1mu3i9LxzRj0HEBUBubq4gy3IfKG36CQCaBDyAy4W4vbuRsG0rLHt2Q3A6AQDOmBjsOH++ZkedHrruPaDL7ANdz94QTKZgh64E8CmAfwHItdlsJdf7IhLdqMIuAOx2e1co3/T3AGgXcCdZRux33yo3/Q4J2rKyWrtosmzYJklwH6nd5ycYjdD26AV9RiZ0PXsBekOw0ykDkAulzyDPZrNVXO8LSnQjCakAsNvtKVBu+CkAugfbz3TqJBK+2oL4wm3QX7xQx1EFxC39BAV5q1H+5h/rPkGTCbpeadBl9oWuW3dApwu2awmAFQCWyLK8Ljs723kdryvRDSFoAWC325MBjIdy0/8k2L76C+eRUPgVErZthfFUaJ32hv4DEPOXt1CwaROuzHsCnqIzoZ1sTAx0aenQZfSBLrUroNUG2/UCgGUAlgD4t81mc1+n60v0X83nprbb7XEAxkC56YcB0Ad6kfbKFcRXdebF/Oc7QJbDOmjC2+9CSM9EQUEBnF9sQMU7/wj/xC0W6MQM6DMyoe18G6AJOsJ4Bkph8C+n01kwbty48E6W6EdMsNvtBgAjoNz02QACdsULTicsu3chYdtWxO3bA8HliuiAuk6dkfSJHU6XCwUFBYDTidInZkO+FHnHvpCQCF16BvSZfaHt0BEQglZsTkCpFeTYbLYd1+4yE/130gFYBaUAqM3jQey3B5GwbSviv94OTXl5vQ9onv6A7w2q18MwYiQqP8qJOE+5+BKcn30K52efQkiyQp/ZB7qMPtDecqv/rq0BzIUyOald2Aci+pHRASjyTzQdP46EbVuRIH0F3aVLUTuYpkkTmEbbaqXrBw+Bw74CcoDRgnDJFy/AsTYPjrV50CQ3gS6jD/SZfaBJaave7Vj0LyXRjUcH1c1gOnEcLd9+C8YzpxvkYOap0wC90q0gqGoBgtkM/ZDhcNhXRPV4nnNn4Vi9Co7Vq6Dr2h3mJ+d5N7EAIIIyN7/6ZhBcrga7+YWYGJgnTQ663TD8TsBgCCPHcE/Ap1+ABQAR/AoAZ5K1wQ5kGjceQkJC0O1CfDz0A25vsOMLycnqP4832IGIbiAaqG4GV0IC5OBj6/U4igbmadOvupthZFZdY/v1O4XGPgUAawBEADSyLB+HsgwXEAS4EpOifhDj0OHQtm7jkyYEGKrTJCdDn9GnYd4oC4CbxZ0A4q/3SdwoNNnZ2RVQjQQ4rdFvBphnPBjyvobRtrrG8SMmNG7s/VUWBIFNgB8hSZIGN23adCGAGdf7XG4U3ulzNf0AUS4A9L16Q9+zV610T3FxwMlEmtZtoOveM/pvtKYPoCgrK4uLhn6ENm7cOLuoqKgtgMcBNExb8kfGu7LmOIBMIPodgcG+/ctWLIfr6FFohwyrtc2QlQ3Xrq+jdg6CwQghvroDMti3fyMoE4S8vgDwbT0OOwTALVW/7wVQEEEeTQD0BNABQDMAcVD+ZxUALgM4BeAQgJ0AiuvIZyKAxHqeC6BMnlL/w96rOhd/EwB425L1OV7IJEm69Ze//GVW1Z/tAdigLA6LRC8A6WHs7wDwA4D9ACIOaZdjtQytOncAODXlQsnqEF8XCyXMXhcALQAkQPmcOACUAzgPZUr8IVkWDky9ePmy97XeAkBVA2gU6fnXom3dBsYANzhcLpQv+Rcqzp5F7KA7anX8aTt2grZDJ7i/OxiV81BV/33eq5ckScb8/Pzf/+IXv1BXHb+F8iG4jDBJkjR8+vTpb+zdu7dLVdIfEfpNkAzgpwAmAeiG0FZsylA+fH8D8Ce/c7l/xIgRr58/f977jw3nXNT5NH/nnXf+8Oabb45VJX8CvwKg6nivnT9/3nvR/xTJ8cJ18ODBxzds2KBeEDIbERQAkiR1f+65595YvXr1wAhP5TsA/wvlf+EJ47h3Hn/s5/9bcfCbzlVJGwDUWQDkWC1DAMwCMBxBIm/5EwRZzrFaDgPYBBk/q90EiGINwHz/jICLdCrXr4Pn7Fl4LlyAK//LgK81ZNmuln3IrtYBKMuyvlmzZv7txo4Awl+lpBjYokWLLmG+Rg/glwCOAHgJyrLrUDtDBACpALICbLs7Pj4+GqV6k5SUlLEh7Hd3QkJC4xD2i5rCwsLE1atXz3D5NilvB9A7guw6t23bNtKbH1Bqa3+BUvjownjd7fqmzTqHsmNOowRzjtWyGMBnUGo6Id38VQQoNdP7AZhq1QBcUeoDEBISYBp3d8Bt5R8srv69MncldAMH1SoodD16QdOqNTwnT9T/XJIjHgGYAOAx+H2rRpvVak28ePHiclmWB6vTzWYzMjMz0b17d6SkpMBqtcJoNMLj8aCkpARnzpzBoUOHsGfPHuzduxdu98256vnixYsPrl69OlBwydkAptUnb5PJhFmzZgXd7vF4UFxcjN27d+Orr76CXLMy1gbgSQCvRPO9brHbY44/+rPV7pKSQdWJGg1i00TE9EqDoU0KtImJEHQ6wO2Gp6wMrosX4Dx9GpVHD6PiwH44z9Qsv1f3AQCIXg3APGkKBHPthYWubw7AuV0CzGblAp47B9eWzdD9ZIDvjoIAw2gbKv72l3qfi18NINwRgNcAfAUlWnHUvfbaawnPP//857IsV39bWSwWTJky5fT48eM/SUpKygdwAMBpKBGQBChtvFZQ2nyZAIYVFxfrhwwZ8lJDnON/s8LCQt177733WHGx0gUyefJkLF26FFW1gUkAnq66dhFxuVwlEyZMmBhkswBlyFEEMKOgoKDRnDlzoKqJzALwKsJoCtRFlmWse/yRf6pvfkObNuVNHp29JKZnrzUA9kAZ0SsXBEEny3IclH6kdlBqiBkABjq/P5Vw+nevLCzft89ZqwbgjomBx2SCpiLyjnLBYID53vsCbivPeb9WWqV9JXT9+tca/tNn9oVj2VJ4fqhfQOBI5gAkJSXh4sWLAGCAsoS4N5RAI1Gzbds27dNPP728tLS0+uZv0qTJuXnz5j3Vv3//9zMyMoKtuS4BcBLAVgDvLFmyBO3bt++I+nVa3pA8Hs9dVRGrAKBixowZPxQVFbXasGEDoPzvHgbw60jzd7lcTlEU115lt48kSXqjX79+W0eNGtVq1apV3vSmUJqS30TjvW7fvn14xd4946sTBOFcbG+x78CHfnooyEsuA/geSifxJ1V56PUtWg5q88af94iiWKYBAJvNdgmqXuT6DgUaR2dBk1w7RqhcXIzK3FW10j2nv4dLCvAFq9XCMHJ0vS/c1ToBA5k/fz60NZ2TKQD+iSiHUd+zZ8+cgoKCO7x/azSak506dRLnzJnzbh03fy0TJ06EKIo33c0PAGvWrJl99OhR758fW63WhePHj1fv8jMA5oY+D1EUTwF4rVu3bv6bWkTrGLLbPb38wH5Vgvz3kYv+eSicPNLS0pyiKK4XRfEM4Pugjuh0BAoCzNMDD/1VfPIx5CAxBRz2lQHT9QMHQbDUb2KXag5AcVVhd1W9evU6O3PmTHVSFoCn6nUiKpIkJWzcuPFXlZWV1WmyLP80Pz+fk5RCJElSxpo1a/qpkv4K4O309HRHSoq3UoBkKJGrr4Wd2tpT2aMWm9JdXJwhOxzqpF31zTNwAVCPoUBDv/7QdexUe4PHg/KcD4K/uWNH4dq9M0CGBmWlYIQEo1FdgITcAXjhwoXp06dPd/frp/584bcA6tNDrHZvfn6+enWUJMvy1aqapFJYWDh727bqmuNuAJtFUSwSBGG5Xy1gNq7NY/C033zjU9v3QOm/iQpBIzSpfy6+1AVAVDoCzTMeCJjuyN8I94m6v9wcq4LUAoYMg2CKrBYnRNgBOGbMmC8FQXjuhRdeQJMm1dddB+V5BE0jvkBVzp49e9fhwz5zRj6sb543E0mSWq1Zs2a8qtf9r6rNC7OysmCqebZEKoChDX1O+/bt+0leXp46aT2UCUJRoYlPcAt6nzCd3SPNqzpP1e/1HgrUdewEQ7/+AbeVf/DeVV/v/u4g3N/ULjCF2FjoBw+J7A3WYxGQx+N5JTExcd3LL7+s7g9oAeAD1GOqqSRJ2iNHjvivetoUaX43o2PHjj2ybt06791QAqC6dzkhIWGjxWLZN2KET6S72Q15Pp07d24zb968x0pLS71JFYhikxEABI3mhKlDR3XSQzlWS73mXES1D6BWvL8q7mPH4NgU2uc7WF+A4c6RgE4fUh4+Fy3yOQDIyMjwCIJwX8+ePU8+/PDD6k1DADwX0UVStD137lysX1p0pj3eBCRJisnNzf0fVf/JB1AKAQBAhw4dAMC/M3AkgJAm2oQpDsBjBw8e3HH69OlkANBqtR6j0TgNSrMkmjbHD/Mp1JoC2JhjtYz4oFF8RF9I6plK9VoQpEluAmOQ2XuOf38GbU2nDADAYzLBkJgE2e2G7HLB43YBbg88Z8/Ac+Y0NM2a++wvJCZB/5P+cH757/DOq57LgNPS0s5JkjR52rRp//766691m2oKsl8B2AxgXdgXC2il+qYAlI6iSxHkc1MqLS2dZrfb1R/ShQF2W9ylS5cFqampcfv27QOUPoBZAH4ehVNIgzKmfgeU5cdx3qZI06ZNK7p27Xr/559/vrQB3vo/4u8c9bPidWuFim+qRwO6AFgryHJpjtVyEsAVv9dUAjgHZar4BsHj/vfkS2XVM8YCFwBJVuWbPIx4/+Z7p0EI8ggv8/QHa40MOJ1OGAvCmyJuGJUFZ/6XgCf0eRX1nAQEABBFcZMkSc/Onz9/wdSpU3HmTPUIymIo8wNOhpmlxW/aqiPM19+0du3aJSxevHjWDz9UN60LEOCbVhTFy5IkfTB+/PifVRUAAHAflII74vkckiQNHTBgwLLy8nKfoank5GSMGDFiz5gxY2ZMmDBhe0O8d1EUt0uS9IeWv31l7umXXkDZ1z6HiUPdNZwxAJ6RNdpDOVbLY1MulKwBVE0ArVZbhKqFHbJOB1cYQ2+COQbmSfc0xHv2oWnWHLq0cBZpRTYHIBC9Xv+7hISEvJdffhm6mseTJUN5LmG4bROdwTf+YThzuf0ZAJiqfhowqOJ/B6fTeWdubq76g76wjt0XDh8+HPHx1Z/lWAD/U89TeC42NrY6Q0EQMHfu3P3Lli17YNasWb0b6ub3crlcT2rj459vteD3jpYvvgzLwEHQhVdjvwVAbo7Vcj+gKgBGjRolQ3lwhnKhw8jUNO5uCAmJYb0ROcynCXkZsrLD2l81B6BSluXQnkEWQI8ePWQA07p3737i0UcfVW/qh/Dne5dbLD5PUNcBCLvdtX379uaJiYl5UJZ8lgOwR/r+bhTr16+frRpq+wHAx1W/CwDaqH9EUbx49uzZXQMH+ozcPoLwC2wf/fvXdHTLsozXX39958CBA99JT0+P7Gk5YejTp48siuJ8CMKtsZl9n23+7HOft/9w2albV6x2tFv8Idq9sxjtFik/bRe9hzZv/g3N5z2L2D591dloACz8wGpJ8V+qF35HoEajrPq7RrRt20GX2i2kfQWTCUJc9Y12PDs7u16PBRNF8TyAe6ZOneq8/XafAKZzAIwNI6vzzZo180+7NYzXAwBkWZ7Tu3fvyIZHbkCSJKWuW7dOvb78HVTVWrOysqZD+fz6/Nx11109cnNz1dm0gvLMy0i9PXfuXLRu3VqdNgXA9Gt5LURRPCGK4kuiKA4VRbFVxsCBxr6jRwt9x4wV+o4dK7gbN9YYWrW2mDp07GG5Y8jzLV94uaTJ479QZ2EWgJ8HLQBCHQo0DhlWK95fQwu1FhDpHIC6iKJYIAjCM8899xxatKie5SlA+TC2DyUPQRCO3XLLLf5xETMb6nrpfceOI21uCA5Hra6KykgyitSePXtmb9y40XvRPFDW3EOSpI4xMTGLwshqdqTnkJaW9q7ZbF764osvqpuCgLJitGOE2UZd//79ZVEUS0VR3C2K4nwAAxKzssvMqV3Vuw31X68cdg0gWMQf95HDqMzLDfo6hyDA8d13dWeu0weMEai9LRXa9rfAfbjuadANFQhUq9X+IT4+fuArr7yS/dBDD8HpdAJKxJ0lUJ6kXKeqkYXv27dv3+LQoer3kI2GWXZcqWoDA0pkoUiYz58/r/7bAaA0wrzCJklS41dffXWqp6YDeD2UaEgAMNFoNGL06ODrRi5fvoz8/HzvnxlQmm5hByoRBAGSJM3s2rVr34ceeqjVX/9aPf8oDsoksX64xgVjKERR3CVJ0qKY3mmPlu/b601u718A1MwGDKEGoO/ZC/pegWMulC36Byo+XhL0tU6zGZUXrt4Zq23XDtoAVX7DaBvK//RGna9tqAKgV69esiRJM1JTU7c//vjjbV9//XXvpjQAb0AJwXQ1XwwaNGiKqgC4A8BtUIZroulcq1atIElS9elHmE9Lv2muRxClZa6hOHPmzMy8vDz1dFD1zL8Ts2bNer6Ol+vdbvcz2dnZmqKi6vi3sxFhpCJRFC9IknT/jBkz1m/dulWzc+dO76beABYA+EUk+cq+o1sNcW03aWLj1B1Y5uB9ACGsBwj27S+Xltb57R8Ox6eBh9l1aenQNK97oVV9JgFdjSiKFwDcc8899zgGD/aJ4zHzo48+CqWNsmzs2LHqaqQGSiipaM9Z/85vhVobhBfvDgBw+fLljM2bN6uTtkb5PIPavn27ITc39+ErV6qHuE8CqP6AiaL4T1EU59fx86xWq11z1113qbO9C8oqz4iIorhBq9W+/sILLyA21mdO1ywAkSxh1bl9vxAvNcClLHed95mZfCniTsCg8f4AVOSuisqDPgHAtetreIqKam8QBBhGZdX5Wk2UhgCDEUXxK0EQnv7Nb36Dli1bVqe/+eab3U6cuGokI3vz5s2Pjxs3Tp02HMDLUT7NTQMGDPDvB3ghnAwkSdItWrRowuWaWJIAsDzK5xlURUXFJLvdrp4Z9ncA4fa4L/QrcHUAHg0zDx+yLD/bokWLnU8//bQ62dsfFNYyYOfZotYVvjEwoxJDwOd8Xa62V7ZuUSft8ykANBrNSQBuAHDFx0PWBQ9pZp42PehTfCqWRHFdiyzD+VngWoC+X39o6miqNEQnYAD/Z7FYPlmwYAG8Y/tlZWU4cKDuRWCiKDoB/Orhhx/271GeB+UDFK2HW2y3Wq2H/NrHd0KJVBNSbWPOnDmzP/zww7aqpAO4SsDKaFmyZAny8vJmnzp1ypvkRASxGmVZXtO4ceOjgwYNUic/BKXtHpH09HQHgKmjRo0qHz58uHpTMpSIyZpQ8tmyZk3cub/8eZjs9Fk5nBdo3w+s8boljcwh5asmSZJQ9Pqrkx2+C/JW+WQ0evRoJ7zhkwQBziBPCVLi/QUeSXHt3gXXgeg2Y535X0KuCBBHQKeDfsSooK9TzQHwQDXHIZpEUZQBPNClS5cjs2fPDuu1CQkJ78fFxX38xhtvINm3uTIdwH8AzIeyki3gjSrLsrcDsq7z8wB49ZFHHvE/xlNQIs8ORvCFTakA/pGfn/871cxFF5TJNNckAGH79u0H5uXlqTuaVkGJchOW9PR0D4C/+a0PSEQ9h+9EUdwP4MlnnnkGfkO7Q6CEIwvqg6Q4XY7VMvDojHvtpQWb1N9kG7+9ULLFf39JkrTxgwcPccm64zlWy1s5VsvkHGv8rUuSY4MW5PYWLYQcq0X8btTwTy5//pl6AdoJQH47UEly1aFA86TJEGJiAm4rXxr9Va1yeTmc+RsDbtMPugNCbO1CXDCb1enf22y2qAVm8CeK4iUAEydOnFg5dGjoq047dOgAQRDuT0lJWf/uu++iR48e6s3JAH4DJa7+D1A6rFZAWTa8AsBXffr0manq2Q7K7Xa/nZSUtP6Pf/wjGjXy6dsZBKUQOAdgI5RJNUsAfAqlwNwL4EFZlgUA0Ol0ckxMzEMIb+Xi1Kp8wv0ZDQCbNm2a/fXXPs+IWBjqgQNYlJaWVtm2bVt12uMI8Zs6GLPZ/BeLxZI3f/58aHyD274AoK///v9qnHBbjtVySBCEEgBfyg7HoOqNGs1pAPc/H+A4Ho/HZJ00ZQ2AllBCx+cA8ncut+ZKjtWyP8dq2ZBjtSzPsVo+zLFaPs6xWr4oqSg5A6BQdjnHqI5RAkEYP+VC6ZU6C4BA/QCCXg/z1MCBVpXOv4apGTrXrwu4NkEwmaAfOrx2+rWp/lcTRVEC8MSvf/1r/yp9ndLS0soEQRjdtGnT3//97393v/jii2jfvtZ0AiuUD9IYKIEuxwDIcLvd/iVfwHZxZmamRxCE8R06dPji/fffx9ChQ/3nICQBGADlwSgToDz8o5V6hw4dOlSOHTv2vrKysn+GeWmsUGoS4f4kSJLUfu3ateoO1W+hFFiR/o/OCoKwzK8W0AGBw6mHLDU1VZZl+YG0tLSz993nEwtTB2WlYnXgl8LCwvg2f1q4B8qcEZN6Z1OnzidjM/vcMeVCydE6Dhfo294MZVHQYCidm5Og/C9vhxIUtOYYHTpetAy4feSU85e3eU/QX50jAcbRNmiaBA5MEs3OP3+eojNw7d4JXY/ao1iGYSPgXLMasqNm+DXcIUCtVoukJKXJc/ny5QtutzvsWYNms/nPAG5fsGDB+EcffRRutxsul8tZVlb3RUlLS3MCeEqSpHdHjhw5b+TIkeP3799v3rx5M/bs2YPDhw/j3LlztcJ+WywWpKSkIDU1FZ07d94xf/78u+s4xuUdO3YMS05OnrVgwYJ5x44da7xu3TpIkoRDhw7BG1XXy2QyoW3btujZsyd69uy5fvDgwXMzMzP3hHId4uPjq69lJCoqKq6Ul5dXnDx58rEdO3Zok5KS4HK5nCUlJX+C90G2kVs4evToKYsXL4bD4YDT6awsLS29F0rTAgBgMBiq1w+UlJRcDmXaenp6epEkSQ/OnDlz1c6dO4UjR45430szh8PxKgBvfDkBOp1GZ7VCE2eBvllzmDp1cplu6/phbJr4hCiKRXUcxmNs176i7VuLTOUH9qPy8CE4ThyH8/RpuC9egCdAIF9NXByMrdvAlNrNY+7abVVcv5/MEUXxCKpPxo/dbp+JqmpWUv6XaK4O5CEISPrEDl2nwIuOLo6zwXUgtAhITrMZO0KYB6Cm69od5ifnBdxW+f57cKyviahlGH4njDU1lQU2m+2ZYPlKkhQD32+WqaIohhVsUZVXApRqtLfU3yyK4txw8igsLIwXBGEIlElF3QC09ng8yaWlpabKykoBwJXY2NjTMTEx3wLYDuBzt9u9PTMzM6Sbo7Cw0CQIwigoUXJ6AGhdUVGRcOXKFZ3H4yk3Go1n4+Pjv4Uy1LdSFMWQw1pJkvR7KLWJ+nhLluXFgiCsRk1n6BJRFP9Qz3y98yGWQalGA0BRWVnZ2IEDB8pV24dCCf0GABAEYXhaWlrIT4eSJOklKO1/r2/dbvf0zMxMDwBs27YtTqPRrIUSsfcYlP9fniiKIfVrVP3vekP5v3WBsrinGYAmcmWl2VNZaarqTCzVxMSc0ZjN3wLYAuX/WOuxZYEKgJGo6oGM27sHbf78Rs1GrRbaNimAywXZ5QJcTsDlrv49WMDPQCIpACAI0LRsBWi1ELRaZRRCq4Og1UIuL/OZGWicci8MNR2EP7fZbH8N72BEP351NgEqWrVGZfMWMJ6uKpzcbriPRPzsw/qT5ZCeFKS9tQN0PX1mKEZ9DgDRj0GtAkCW5WPeDiJXYiIO/3o+EjfnI9m+ErrLxWEf4FrSNGkK48R7oEuvta6GobaJAgg4fmi329+HssSxerumogKN1q9Fo88+haay/msdImoCBHsTcXEwjLkLhjuGAb6TlxwA3pRleV52djaj7hD5CT6BwG7PAPA7KEMJ1fSXLiJ51QokbtkcVsgwf1EpAPR6GIaNgME2BkKMz3xsGUpHzzybzRZRZx7RzaDOqaCSJOH06dPZUFY4+Tzu2nTyBJouX4rY/fsQiXoVAIIAfWZfGCZM8h/uA5QJM0/YbLYtEeRMdFMJaS643W7XAXgQwPPwW08et28vmi5fCuOp8OJiRloAaDt1gfGeKdC2v8V/038APBMXF/ex3+o8IgoirKWndrs9DsATAOZCtYhC8HiQsGUzmqxaAV3xpZDyCrcA0DRvAePEydD1TvPfdB7Ai4IgLMzKymI7nygMEa09t9vtzaAsVHkAqpEETWUlGq1fh0br1161ozDUAkCIj4dx7N3QD7rDf/VhJZQIOi+F+sBPIvJVr+ATubm5t8myvACAzxNBdMXFaGJfgcSCTUFj+F+1ADAYYBgxCobRNghmn+cCylBCcT9js9mOXu8LSHQji0r0GbvdPgjKiIFPpBnj96fQdPlSxO2tPYU8aAGg0UDfrz+Md0+AUHstwkYAT9pstm0gonqLWvip5cuXC3q9fhKUiDbt1NtiD+xH02VLYFLN4gtUAOhSu8EwaTK0KW39sz8IYF5cXNwKdvARRU/Un5m+evVqo8fjeQTKI5hq1hPLMhK3FCDZ/gn0Fy/6FACalq1gvGcKdN17+md3DsB8WZbfys7ObrD1/EQ3q6gXAF52uz0JwDMAHoNq3bPG4UCjzz5F/MYvsKu8DMZxE6AfcDvgG0ihHMD/QVnF9989/5joBtZgBYCX3W5PAfASgMlQRV7RXCmFR6cHjD7PqfBACaDwK5vN1iAhvIioRoMXAF52u703gN9DiX8fyAYAT9lstgZ9uCIR1bhmBQCgBLHMzc0dCWXEwPuMogMAnsrKysr1C1NFRA3sutxxK1eu1Go0mhlQmgSLbDZbgz9VlYiIiIiIiIiIiIiIiIiIiIiIiIiIiIiIiIiIiIiIiIiIiIiIiIiIiIiIiIiIiIiIiIiIiIiIiIiIiIiIiIiIiIiIiIiIiIiIiIiIiIiIiIiIiIiIiIiIiIiIiIiIiIiIiIiIiIiIiIiIiIiIiIiIiIiIiIiIiIiIiIiIiIiIiIiIiIiIiIiIiIiIiIiIiIiIiIiIiIiIiIiIiIiIiIiIiIiIiIiIiIiIiIiIiIiIiIiIiIiIiIiIiIiIiIiIiOg6+3/Xx6AwyQXPpwAAAC56VFh0ZGF0ZTpjcmVhdGUAAHjaMzIwNNc1MNM1NA8xNLEyMbIyMtU2MLAyMAAAQg0FEpy5pSMAAAAuelRYdGRhdGU6bW9kaWZ5AAB42jMyMDTXNTDTNTQPMTSxMjGyMjLVNjCwMjAAAEINBRK1hg2rAAAAAElFTkSuQmCC;" parent="WgaqOi_y15p2v3Q_tbm1-13" vertex="1">
          <mxGeometry x="104" width="150" height="150" as="geometry" />
        </mxCell>
        <mxCell id="WgaqOi_y15p2v3Q_tbm1-30" value="" style="endArrow=classic;startArrow=classic;html=1;rounded=0;entryX=0.5;entryY=1;entryDx=0;entryDy=0;exitX=0;exitY=0.5;exitDx=0;exitDy=0;" parent="WgaqOi_y15p2v3Q_tbm1-13" source="WgaqOi_y15p2v3Q_tbm1-15" target="WgaqOi_y15p2v3Q_tbm1-14" edge="1">
          <mxGeometry width="50" height="50" relative="1" as="geometry">
            <mxPoint x="30" y="80" as="sourcePoint" />
            <mxPoint x="80" y="30" as="targetPoint" />
          </mxGeometry>
        </mxCell>
        <mxCell id="WgaqOi_y15p2v3Q_tbm1-16" value="" style="endArrow=classic;startArrow=classic;html=1;rounded=0;exitX=0.5;exitY=0;exitDx=0;exitDy=0;" parent="WIyWlLk6GJQsqaUBKTNV-1" source="WgaqOi_y15p2v3Q_tbm1-1" target="WgaqOi_y15p2v3Q_tbm1-15" edge="1">
          <mxGeometry width="50" height="50" relative="1" as="geometry">
            <mxPoint x="246" y="230" as="sourcePoint" />
            <mxPoint x="266" y="230" as="targetPoint" />
          </mxGeometry>
        </mxCell>
        <mxCell id="WgaqOi_y15p2v3Q_tbm1-19" value="Requests" style="text;html=1;strokeColor=none;fillColor=none;align=center;verticalAlign=middle;whiteSpace=wrap;rounded=0;" parent="WIyWlLk6GJQsqaUBKTNV-1" vertex="1">
          <mxGeometry x="288.31" y="310" width="60" height="30" as="geometry" />
        </mxCell>
        <mxCell id="WgaqOi_y15p2v3Q_tbm1-20" value="Return" style="text;html=1;strokeColor=none;fillColor=none;align=center;verticalAlign=middle;whiteSpace=wrap;rounded=0;" parent="WIyWlLk6GJQsqaUBKTNV-1" vertex="1">
          <mxGeometry x="288.31" y="220" width="60" height="30" as="geometry" />
        </mxCell>
        <mxCell id="WgaqOi_y15p2v3Q_tbm1-21" value="Data process/Bussiness Rules" style="shape=process;whiteSpace=wrap;html=1;backgroundOutline=1;" parent="WIyWlLk6GJQsqaUBKTNV-1" vertex="1">
          <mxGeometry x="140" y="740" width="286" height="100" as="geometry" />
        </mxCell>
        <mxCell id="WgaqOi_y15p2v3Q_tbm1-24" value="" style="endArrow=classic;startArrow=classic;html=1;rounded=0;exitX=0.5;exitY=0;exitDx=0;exitDy=0;" parent="WIyWlLk6GJQsqaUBKTNV-1" source="WgaqOi_y15p2v3Q_tbm1-21" edge="1">
          <mxGeometry width="50" height="50" relative="1" as="geometry">
            <mxPoint x="336" y="830" as="sourcePoint" />
            <mxPoint x="283" y="670" as="targetPoint" />
          </mxGeometry>
        </mxCell>
        <mxCell id="WgaqOi_y15p2v3Q_tbm1-25" value="" style="endArrow=classic;startArrow=classic;html=1;rounded=0;entryX=0.5;entryY=1;entryDx=0;entryDy=0;" parent="WIyWlLk6GJQsqaUBKTNV-1" target="WgaqOi_y15p2v3Q_tbm1-21" edge="1">
          <mxGeometry width="50" height="50" relative="1" as="geometry">
            <mxPoint x="283" y="940" as="sourcePoint" />
            <mxPoint x="386" y="810" as="targetPoint" />
          </mxGeometry>
        </mxCell>
        <mxCell id="WgaqOi_y15p2v3Q_tbm1-26" value="" style="shape=image;verticalLabelPosition=bottom;labelBackgroundColor=default;verticalAlign=top;aspect=fixed;imageAspect=0;image=https://www.pngfind.com/pngs/m/53-535670_spring-framework-logo-spring-boot-hd-png-download.png;" parent="WIyWlLk6GJQsqaUBKTNV-1" vertex="1">
          <mxGeometry x="218" y="808" width="98.75" height="30" as="geometry" />
        </mxCell>
        <mxCell id="WgaqOi_y15p2v3Q_tbm1-27" value="" style="shape=flexArrow;endArrow=classic;html=1;rounded=0;entryX=0;entryY=0.5;entryDx=0;entryDy=0;endWidth=9.6;endSize=6.464;exitX=1;exitY=0.3333333333333333;exitDx=0;exitDy=0;exitPerimeter=0;" parent="WIyWlLk6GJQsqaUBKTNV-1" source="WgaqOi_y15p2v3Q_tbm1-12" target="WgaqOi_y15p2v3Q_tbm1-14" edge="1">
          <mxGeometry width="50" height="50" relative="1" as="geometry">
            <mxPoint x="56" y="120" as="sourcePoint" />
            <mxPoint x="96" y="100" as="targetPoint" />
            <Array as="points" />
          </mxGeometry>
        </mxCell>
        <object placeholders="1" c4Name="CEP Promise" c4Type="API(https://github.com/BrasilAPI/cep-promise)" c4Description="Busca por CEP integrado diretamente aos serviços dos Correios, ViaCEP e WideNet (Node.js e Browser)" label="&lt;font style=&quot;font-size: 16px&quot;&gt;&lt;b&gt;%c4Name%&lt;/b&gt;&lt;/font&gt;&lt;div&gt;[%c4Type%]&lt;/div&gt;&lt;br&gt;&lt;div&gt;&lt;font style=&quot;font-size: 11px&quot;&gt;&lt;font color=&quot;#cccccc&quot;&gt;%c4Description%&lt;/font&gt;&lt;/font&gt;&lt;/div&gt;" id="1ZPPYAJS0Nbkx732ppPT-1">
          <mxCell style="rounded=1;whiteSpace=wrap;html=1;labelBackgroundColor=none;align=center;arcSize=10;metaEdit=1;resizable=0;points=[[0.25,0,0],[0.5,0,0],[0.75,0,0],[1,0.25,0],[1,0.5,0],[1,0.75,0],[0.75,1,0],[0.5,1,0],[0.25,1,0],[0,0.75,0],[0,0.5,0],[0,0.25,0]];fontFamily=Georgia;" vertex="1" parent="WIyWlLk6GJQsqaUBKTNV-1">
            <mxGeometry x="560" y="694" width="240" height="120" as="geometry" />
          </mxCell>
        </object>
        <mxCell id="1ZPPYAJS0Nbkx732ppPT-3" value="" style="endArrow=classic;startArrow=classic;html=1;rounded=0;" edge="1" parent="WIyWlLk6GJQsqaUBKTNV-1" target="1ZPPYAJS0Nbkx732ppPT-1">
          <mxGeometry x="1" y="-50" width="50" height="50" relative="1" as="geometry">
            <mxPoint x="430" y="750" as="sourcePoint" />
            <mxPoint x="536" y="460" as="targetPoint" />
            <mxPoint x="4" y="-65" as="offset" />
          </mxGeometry>
        </mxCell>
        <mxCell id="1ZPPYAJS0Nbkx732ppPT-5" value="" style="endArrow=classic;startArrow=classic;html=1;rounded=0;entryX=-0.003;entryY=0.305;entryDx=0;entryDy=0;entryPerimeter=0;exitX=1;exitY=0.5;exitDx=0;exitDy=0;" edge="1" parent="WIyWlLk6GJQsqaUBKTNV-1" source="WgaqOi_y15p2v3Q_tbm1-21" target="1ZPPYAJS0Nbkx732ppPT-7">
          <mxGeometry x="1" y="-50" width="50" height="50" relative="1" as="geometry">
            <mxPoint x="480" y="519" as="sourcePoint" />
            <mxPoint x="570.0000000000002" y="520" as="targetPoint" />
            <mxPoint x="4" y="-65" as="offset" />
            <Array as="points">
              <mxPoint x="470" y="880" />
              <mxPoint x="500" y="880" />
              <mxPoint x="520" y="880" />
            </Array>
          </mxGeometry>
        </mxCell>
        <object placeholders="1" c4Name="API Google Calendar" c4Type="API" c4Description="A API expõe a maioria dos recursos disponíveis na interface da Web do Google Agenda." label="&lt;font style=&quot;font-size: 16px&quot;&gt;&lt;b&gt;%c4Name%&lt;/b&gt;&lt;/font&gt;&lt;div&gt;[%c4Type%]&lt;/div&gt;&lt;br&gt;&lt;div&gt;&lt;font style=&quot;font-size: 11px&quot;&gt;&lt;font color=&quot;#cccccc&quot;&gt;%c4Description%&lt;/font&gt;&lt;/div&gt;" id="1ZPPYAJS0Nbkx732ppPT-7">
          <mxCell style="rounded=1;whiteSpace=wrap;html=1;labelBackgroundColor=none;align=center;arcSize=10;metaEdit=1;resizable=0;points=[[0.25,0,0],[0.5,0,0],[0.75,0,0],[1,0.25,0],[1,0.5,0],[1,0.75,0],[0.75,1,0],[0.5,1,0],[0.25,1,0],[0,0.75,0],[0,0.5,0],[0,0.25,0]];strokeWidth=1;fontFamily=Georgia;" vertex="1" parent="WIyWlLk6GJQsqaUBKTNV-1">
            <mxGeometry x="560" y="844" width="240" height="120" as="geometry" />
          </mxCell>
        </object>
        <mxCell id="1ZPPYAJS0Nbkx732ppPT-8" value="" style="shape=image;verticalLabelPosition=bottom;labelBackgroundColor=default;verticalAlign=top;aspect=fixed;imageAspect=0;image=https://www.drupal.org/files/project-images/google-calendar.png;" vertex="1" parent="WIyWlLk6GJQsqaUBKTNV-1">
          <mxGeometry x="747.41" y="814" width="79.58" height="60" as="geometry" />
        </mxCell>
        <mxCell id="1ZPPYAJS0Nbkx732ppPT-11" value="" style="shape=image;verticalLabelPosition=bottom;labelBackgroundColor=default;verticalAlign=top;aspect=fixed;imageAspect=0;image=data:image/png,iVBORw0KGgoAAAANSUhEUgAAAWsAAAFcCAYAAAAOOZ9tAAAYkWlDQ1BJQ0MgUHJvZmlsZQAAWIWVeQdUFEvTds9sYpecc84555xBQHIGZVlyWGGJIhjAiwhGRESCICBJAUElCSgYEEURQQVFBBEBQQUxIPEbgt773vc//3e+Pqdnnq2uruqu6u7q2gGAe5gYEREGMwAQTo6mOJgbCbi5ewjgJgEEYEAP2AAzkRQVYWhnZw2Q8vv9n+XHC4QbKf2yG7L+u/3/W5j8/KNIAEBeCPb1iyKFI/g2AOh8UgQlGgDsBl04LjpiAx9EMAsFGSCCszZw4Bau2MC+W7h1k8fJwRjBTwGgoiESKYEA0A0jdIFYUiAih24FaWMi+wWTAWBFZo7VIwUR/QDgtkN4ZMLD92zgRARLIPwRCC5FsIbvP2QG/od83z/yicTAP3hrXpuFyiQ4KiKMuPf/aJr/vYSHxfzWIYZUmiCKhcPG/BEbDobusdrANAieJfvutN2wNYIXg/227A4ATAiKsXDe4od5SFHGiP0QjwNYwY9oYoVgHgSbkcN2Wm/TfQOCzSwRjNgMjg+OtnRCMAeC0/yjTB23eYooexy2dcENARRjw236AyJlU++GrpGYUGfDbflfg/wtt+Wj6BKCnFwRTECwSGywy04E0yFYLirU0WqbRychyHjnbx5KjMPG+EUQ7OBPNjfako+KDaCYOWzzp4dH/Z4vqigo2HLnNq6PDnKy2LIP6i6JuDl+ZC6op/5kQ+ffcvyj3Kx/z8XP38R0a+6oKX+ys+O2nMWIaCOHrb5oQkSY3TY/Wsg/zHyDLoRglahYx+2+aJdoZHFuyUcHRETbOW2NE50QQtxhtzUe9ClgDYyBCRAAMUj1BXtACAh+Mts4i/zaajEDREABgcAfyG5Tfvdw3WwhI09HkAA+IcgfRP3pZ7TZ6g9iEfrqH+rWUxYEbLbGbvYIBR8QHA6sQBjyO2azF/mPNhfwHqEE/5d2IlJJyHjDkLrR/v+m/6b+TTFEKNbblJjfGgXof3NiTbEmWAusGVYSzYXWQ2ujrZGnAVKV0Bpozd/z+Jsf8wHTh3mHeY4ZxQztDk6m/GuUNmAUkW+2bQvff9oCLYbIVEUboXUR6YhkNBuaC8iiVRA9hmh9RLMqQjXeHveGVQT+Jfs/ZvAPb2zz4RXwMJ4db4CX+HdPOik61T9SNmz9T/tsjdX3j72N/7T8W7/xP6zvh7yt/s2JSkNdQ3WhOlDdqFZUIxBA3UI1oXpQbRv4z+p6v7m6fmtz2BxPKCIn+L/0Ebd1blgySuGywrTCylZbtH989MbGM94TsZcSHBgULWCIRAd/AUsySU5GQElBSRmAjVizdXwtOGzGEIit92+aryJy7K4ix2fP37Rw5OyuOQwA372/aWKVyPbbD8DlfFIMJXaLht54YJBTgh7ZaZyADwgDCWQ+SkANaAMDYAp2AFvgBNzBLsTKQcg6p4A4kAgOgVSQAU6BsyAXFIISUAGqQT1oBK2gA9wHj8BT8By8RlbPBJgBc+AHWIYgCAfRQswQJ8QPiULSkBKkAelBppA15AC5Qz5QIESGYqBEKAXKgDKhXOgiVAnVQc1QB9QN9UFD0Bg0DX2FlmAUTAOzwLywGCwPa8CGsBXsBHvDgXAknAAfhk/AOXAxfAVugDvgR/BzeBSegb+jAIoaxYYSRMmiNFDGKFuUByoARUHtR6WjslHFqBpUC+LnftQoahb1C41FM6MF0LLICrZAO6NJ6Ej0fvQxdC66At2AvovuR4+h59BrGFoMD0Yao4WxxLhhAjFxmFRMNqYMcwNzD9lLE5gfWCyWDSuOVUf2ojs2BLsPewxbgK3F3sb2Ycex33E4HCdOGqeLs8URcdG4VNx53BXcLdwz3ARukYqaip9KicqMyoOKTJVMlU1VRdVO9YxqkmoZz4AXxWvhbfF++L34k/hSfAu+Fz+BXyYwEsQJugQnQgjhECGHUEO4RxgmLFBTUwtRa1LbUwdTH6TOob5K/YB6jPoXDRONFI0xjRdNDM0JmnKa2zRDNAu0tLRitAa0HrTRtCdoK2nv0I7QLtIx08nRWdL50R2gy6NroHtG95keTy9Kb0i/iz6BPpv+Gn0v/SwDnkGMwZiByLCfIY+hmeElw3dGZkZFRlvGcMZjjFWM3YxTTDgmMSZTJj+mw0wlTHeYxplRzMLMxswk5hTmUuZ7zBMsWBZxFkuWEJYMlmqWJyxzrEysKqwurPGseaxtrKNsKDYxNku2MLaTbPVsL9iW2HnZDdn92Y+y17A/Y//Jwc1hwOHPkc5Ry/GcY4lTgNOUM5TzNGcj5xsuNJcUlz1XHNcFrntcs9ws3NrcJO507nruVzwwjxSPA88+nhKeHp7vvHy85rwRvOd57/DO8rHxGfCF8GXxtfNN8zPz6/EH82fx3+L/KMAqYCgQJpAjcFdgTpBH0EIwRvCi4BPBZSFxIWehZKFaoTfCBGEN4QDhLOFO4TkRfhEbkUSRyyKvRPGiGqJBoudEu0R/iomLuYodEWsUmxLnELcUTxC/LD4sQSuhLxEpUSwxIImV1JAMlSyQfCoFS6lKBUnlSfVKw9Jq0sHSBdJ9MhgZTRmyTLHMS1kaWUPZWNnLsmNybHLWcslyjXKf5UXkPeRPy3fJrymoKoQplCq8VmRS3KGYrNii+FVJSomklKc0oEyrbKZ8QLlJeV5FWsVf5YLKoCqzqo3qEdVO1VU1dTWKWo3atLqIuo96vvpLDRYNO41jGg80MZpGmgc0WzV/aalpRWvVa33RltUO1a7SntIR1/HXKdUZ1xXSJepe1B3VE9Dz0SvSG9UX1CfqF+u/MxA28DMoM5g0lDQMMbxi+NlIwYhidMPop7GWcZLxbROUiblJuskTUyZTZ9Nc0xEzIbNAs8tmc+aq5vvMb1tgLKwsTlu8tOS1JFlWWs7tUN+RtOOuFY2Vo1Wu1TtrKWuKdYsNbLPD5ozN8E7RneSdjbbA1tL2jO0bO3G7SLub9lh7O/s8+w8Oig6JDl2OzI67HascfzgZOZ10eu0s4Rzj3OlC7+LlUuny09XENdN11E3eLcntkTuXe7B7kwfOw8WjzOO7p6nnWc8JL1WvVK8X3uLe8d7du7h2he1q202/m7j7mg/Gx9WnymeFaEssJn73tfTN950jGZPOkWb8DPyy/Kb9df0z/ScDdAMyA6YCdQPPBE4H6QdlB80GGwfnBs+HWIQUhvwMtQ0tD10Pcw2rDacK9wlvJjORQ8l39/Dtid/TFyEdkRoxGqkVeTZyjmJFKYuCoryjmqJZkEt9T4xEzF8xY7F6sXmxi3EucdfiGePJ8T17pfYe3TuZYJZwaR96H2lfZ6Jg4qHEsSTDpIv7of2++zsPCB84fGDioPnBikOEQ6GHHicrJGcmf0txTWk5zHv44OHxv8z/upxKl0pJfXlE+0hhGjotOO3JUeWj54+upfulP8xQyMjOWDlGOvbwuOLxnOPrJwJOPDmpdvLCKewp8qkXp/VPV2QyZiZkjp+xOdOQJZCVnvXt7O6z3dkq2YXnCOdizo3mWOc0nRc5f+r8Sm5Q7vM8o7zafJ78o/k/C/wKnl0wuFBTyFuYUbhUFFw0eNH8YkOxWHF2CbYktuRDqUtp1yWNS5VlXGUZZavl5PLRCoeKu5XqlZVVPFUnL8OXYy5PX/G68rTapLqpRrbmYi1bbcZVcDXm6sc6n7oX9Vb1ndc0rtVcF72ef4P5RnoD1LC3Ya4xqHG0yb2pr3lHc2eLdsuNm3I3y1sFW/PaWNtOthPaD7ev30q49f12xO3ZjsCO8c7dna/vuN0ZuGt/98k9q3sP7pvdv9Nl2HXrge6D1m6t7uaHGg8bH6k9auhR7bnxWPXxjSdqTxp61Xubnmo+benT6Wt/pv+so9+k//6A5cCj5zuf971wfjH40uvl6KDf4NRQ2ND8q9hXy68PDmOG098wvMke4Rkpfiv5tnZUbbRtzGSs553ju9fjpPGZ91HvVyYOf6D9kD3JP1k5pTTVOm02/fSj58eJmYiZ5dnUT4yf8j9LfL7+xeBLz5zb3MQ8ZX7967EFzoXybyrfOr/bfR/5Ef5j+Wf6IudixS+NX11LrkuTy3EruJWcVcnVljWrteH18PX1CCKFuHkVQCEVDggA4Gs5ALTuADAjeRvBcysX3C4o5PIBI28XSA6agQ+jlFBT6CIMEYl1c7gmqmP4QII+NQsNAy0THQM9CwMPoyCTNLMWiw2rL1s8+xmOGs4erinu7zyrfFT8HAKiggpCesK2Ij6iUWJp4gUS9ZKPpTEyRNl2eQGFfYoDylIqcaqd6lgNY81orRLtHp0vegR9RgNWQw4jTmMuE3ZTFjN6cyrzdYtvljM73lr1W9+3adxZYZtrd9w+xSHBMdop0jnKJc51v1uae5ZHsWe1V4131a6y3SU+F4mFvkWki36l/pUBtYHNQXeCe0NGQufDsWSuPdIRWpEWFOeoXdH+MWGxkXGx8Xv3JiUc3FeQ2JLUv//jgbVDdMncKWKH5f5STdU6opdmdNQ83T6Dciz/ePeJxVOSp70yj59pz5rNZjunneN1Pj73VF5JfkPBwwtvCucvoovZSiRKNS9ZlrmVB1bEVCZXnbicd+VSdV3Nrdreq6N1C9ew17lvKDSYNro3hTcfbMm8ebH1eFt0u/st3dv8HaDjXeedO2V3M+5R7nt37Xig1c3XPfOw9JFrD7an9rHT48Unub36vRNPz/SZ9q08u9mfPGD7nP/55xdtL9MHnYf4h6ZeVb+OHFYe/vamfiTirdLb1dEnY4XvIsYN3jO+fzdR9+HQpN0U/9Sn6Zsfj844zXLODn0699nji/CXX3OT8/MLkt9O/pBepF+yX5ldX9/0vzB0FbaG51DZaDP0d0w51hcngpuiqsFHEwypRWkYaZZoZ+he0z9luMfYztTI3MTSytrG1sHezdHH2cXVxt3AU8d7ma+Cv0zgguAZoVPCJSJdop/F2SQMJMOkcqUfyPyQE5N3VNivWKXUp/xDlUNNQ91Wg6gZokXSdtex0TXUU9EXNWAxhA2/GL02vm9y1TTX7LB5mIWDpdoObitgNWn9xObGzkLbo3ax9iQHB0cjJyVnERc2VyrXZbdP7m89+jzvejUiq6Fwd5ZPOvGgbyyJ7Ef2JweEB4YFhQaHhASF+ocRw3eRPfa4RjhG2lJsotyjA5Arc1JcavyJvVkJ5/flJxYkFe4vOlB0sOhQSXJDypPDU6mYI0LIeiClp2SUHOs4PnLi5ym608KZ6mess3zPxmefPFea03K+N3c872cB/gJXoXSR1kXzYpeSoNL9l7LKqssfVLyvApd5r2hXu9ZQao9dvVTXWv/02pvr0ze+N0JNtM2cLaI3FVo124zad9yyu+3c4dHpecfpruU9nfuyXdwPcA/mul88bH6U15P42OuJdi9X7+LTF33Xn53pjx5we27wQvYl/yDHEPsrvtdSwzpvHEd833qMmo+pvBMcpxtfe/95YuzDy8neqUfT3R+7Zx7P9n/6+AWaY5+X+Wqy4PMt5Xvdj5lFnV9FyxwrVWvWm/6XBnchK2gQWQH3UZao52gf9DdMKlYQ24hzxC1QleO9CcyEp9QnaBxoBWjn6B7SX2HIYjzEFM0cyuLNqsvGwbaArIQizlguK25B7p88j3lL+ZL4XQWUBRkEJ4WahdNEnER5RUfFisVJEqISHyQrpfZIa8igZfpkc+WI8hLyswp1irFKWkpryh0qh1XN1ajUHqpnaNho4jXva6VoG2iv6DTpRusp6H3Uv2TgY8hlOGB0wtjSeM3kmmmIGb9Zv/kRC22LT5aFO+ytIKt6a18bRpt7O5NstWx/2l23pyD3hy+ONU5kZ1nnTy7VruFuMm5T7sUe7p4snn1ep7wdd3Huere7xmcf0cqXx/czqcMv098rQDhgJvBaUGKwaQhDyHBoVVhCuA1ZiPxrz7OI8sgIijLlR1RzdFKMcSxN7GBceXziXtcE9X3ciajEz0lD++8cqD547tCh5NAUl8OGf8ml8h6hPbKWNn/0Q/rLjPZjF4+nnPA/aXFK9jTz6dXMj2eGs56dfZz96FxvzsD5wdzhvLf57wumLnwp/HERFFOXcJZKXtIpsy8PqjhYmVN19XLXldHqX7XMV2XrLOsDr6VeL7vxoGG2ibFZvyX1Zn8bX3vArerbC53ad/6623dfpCvxweuHRo/qHks9KXyK7iM+6xhQet7ykjJEen1pxGuscqJ/hrggvOH/rf8ENwpWDYCzfEiGygCA41kAjiMBQvwLAOwEAOxoAXDSBPAOXQCzJADIlO9P/ICQxJMAmAAPkm2qIXm0KwgBB0EWqAS3wSCYh2ggCSQ3JEHJUAl0F5qEqWEF2BVOhmvhNygalC4qAlWKGkIzIDnaIXQrehGjhonCXMa8xbJirbDJ2JtIjqWII+NqcF+QXCqe6jaeBu+Br8KvIVlSLTUz9V7qMRprmmZaKdoCJNM5huQ2aUg2c4KRlbGQSZapldmG+S0LhRXLmssmx9bJ7so+y5HMyclZx+XAtcRdymPHs8pbzefNT8/fKRArKC04KpQtvFMEK9ImGi0mKzYtXikRJqkkuSzVLZ0rQ5Y1leOXW5F/rdCmeEzJW1lJhVplSrVbrVY9V+OoZqIWRTtcJ1g3WC9EP8DAxlDFiMsYGH9AbsgNZhfNT1jst4zaEWYVar3HJmFnuu1Fu2b7focvTrTOsi72rnFuRe49Hstest6+u3J3Pycy+zqScvzeBAgFBgZVBy+EaoWlhPfs4YgIiGyMIkQTY27G8ca3JHgnUiU1H4g4JJ08fbg8lZTGc7Q/48hxjZOKp8lnHmVb5oznHb0gWVRXInhpb3lD5bsrLDU2V0/UD92Qb8xsgVoTb6E7su/C970ftD4SeHyk99uzgIGRl55Db4b9R76OnXu/a1J2emo26nP73MOv574pfq/4sb4o98txyX7ZekVuFb06uHZq3Xzz/IAABtAAViAI5IE+sAf+IBFkIt7vBMNgEWKFVCAnKBbKgVqhdzAeVoQ94Qz4JvwJJYByQR1D3UNDaAP0PvR19CxGDEPEFGBeYTmwrtgc7CscL84XV4mbp9KmSqN6gRfHJ+D7CNKEo4Q5ak/qbhpNmiu0QrT5dBx0OfRc9EUMEgzXGA0ZB5hCmGHmAhZNlkHWeDYutjZ2Xw4qjqucHlwYrmvcJB5Wnoe8yXzafD/5bwjECKoJLgndEj4iYifKKjosViZOkTCUZJL8INUmfU4mStZBTlmeXX5VYVyxXSlfOUmFqGqppqIurMGqSa2F0YZ0gC6sh9OnNcAYLBnOGU0YvzZ5Ztpt1mneZtFi2bKjzeqedZ/N2M7vdjT2wg7ajs7ILeaUy1XXAbclD2FPW68D3vW7pnyEiLt980kv/RkDrAOPBHUGryLejg9vIi9F6EemUQaiRWLiYnvjVfbm78MmUpLGDjgcvJ+sm9L0l3pqc5r+0YcZbsc+njhySu30xzNlZ4PPqZ4n5E7l915oK6ovvlJ6uay6oqGq48rjmhdXh+qfX3/QcLXpeItPq3Tb3K2ajqA75vc8uyK70x9denyrd6hvfgDzgnVQ6JXMsMqI5qjmO973mIn5ydHpJzMtnwq/xM+bLsDfKn/o/bz/y2CpcoV6lbR2bdP/MKACLEAY2fvWIACkgEJwC4xCaGTX74SioTzoDjQLs8GGcBRcCY+heFGeqALUGFocHYG+iaHCuGIqMGtYd2wzjg93FPeLKozqHbK/+wk2hG5qG+oBGh+aL7TJdJx01+kd6X8wFDBaMC4z1TGHsUizfGZtYEthd+SQ5IQ533J1cdfzlPCe5zvLfw65h1xBvDooMiP6S5xaQkBSXcpROlLmjGyz3LgCk6KV0mnlAVU2NWf10xqPtNDaujpxutf05g2MDfOMfpq4mDaac1rssxy20rHOtfll62r30iHAccn5tKuYW5OHqedDb/Nd7T7yxHwSwS/J/1tgeNDHkODQj+Fh5M8RkZHfouKil2KT4jn33tkXmSS0//nBI8nqKeN/pR+RTutK353x9XjySY5TdZnWZ6bPpp0Tz+nKDcjHFBQX6he9Ko4upbtUXm5YMVKVdIWv+natXx2+/up1lxurjaXNVi1fW8+3G9ya7Dh5h/du1n36ruPd9A/P9vA9ruhVetr+zKL/2XOXF4ODLkO9r02Gr48Ivv1rdPadx/jgxO4PU1Pk6akZh9naT3NfBOZ05o2/qi0ILHz61vKd8oPrR+dP4s8Pi2GL87+if71aMlgqW6Zdjlq+v0K/4rpStDK1qri6d7VzdX6Nd81yLWataK1nbXFdZN1ufd96+Xr/hv+jApSVNsMHRGMEAGZkfX1BDABcJgCrp9fXl4vX11dLkGRjGIDbYVvfmTZjDRJj8hc20EPB84n//saz9Q3qH3nMv99gMxJtakUi0UbZiErgfwDpA/o4oBCB0QAAAGJlWElmTU0AKgAAAAgAAgESAAMAAAABAAEAAIdpAAQAAAABAAAAJgAAAAAAA5KGAAcAAAASAAAAUKACAAQAAAABAAABa6ADAAQAAAABAAABXAAAAABBU0NJSQAAAFNjcmVlbnNob3QlwBFQAAACPmlUWHRYTUw6Y29tLmFkb2JlLnhtcAAAAAAAPHg6eG1wbWV0YSB4bWxuczp4PSJhZG9iZTpuczptZXRhLyIgeDp4bXB0az0iWE1QIENvcmUgNi4wLjAiPgogICA8cmRmOlJERiB4bWxuczpyZGY9Imh0dHA6Ly93d3cudzMub3JnLzE5OTkvMDIvMjItcmRmLXN5bnRheC1ucyMiPgogICAgICA8cmRmOkRlc2NyaXB0aW9uIHJkZjphYm91dD0iIgogICAgICAgICAgICB4bWxuczpleGlmPSJodHRwOi8vbnMuYWRvYmUuY29tL2V4aWYvMS4wLyIKICAgICAgICAgICAgeG1sbnM6dGlmZj0iaHR0cDovL25zLmFkb2JlLmNvbS90aWZmLzEuMC8iPgogICAgICAgICA8ZXhpZjpQaXhlbFlEaW1lbnNpb24+NzY4PC9leGlmOlBpeGVsWURpbWVuc2lvbj4KICAgICAgICAgPGV4aWY6VXNlckNvbW1lbnQ+U2NyZWVuc2hvdDwvZXhpZjpVc2VyQ29tbWVudD4KICAgICAgICAgPGV4aWY6UGl4ZWxYRGltZW5zaW9uPjEzNjY8L2V4aWY6UGl4ZWxYRGltZW5zaW9uPgogICAgICAgICA8dGlmZjpPcmllbnRhdGlvbj4xPC90aWZmOk9yaWVudGF0aW9uPgogICAgICA8L3JkZjpEZXNjcmlwdGlvbj4KICAgPC9yZGY6UkRGPgo8L3g6eG1wbWV0YT4KScHZngAAIbhJREFUeAHt3UGMHUdex/GacezxYG8844mjRYKs5ER7IhIcWE0klEuQpTksiCUSayM4gXbZCweOERxAPkZatFK0iBNIOwHBgsQiWbHYy54sOIAUTigbwAaRxOvMeDxmPOOZN/S/3w4z8VTVv/tVVVd197el1dpdr6q6P9XvP5OX36vMHVaH4UBgxAKvvfaauXPnjlVgdXXVPP/88+b27dvW9mvXrpmtrS36Z/R77733rGsztJPzQ7sh7gcBBBAYogDFeoiryj0hgMDgBCjWg1tSbggBBIYoQLEe4qpyTwggMDgBivXglpQbQgCBIQrMkQYZ4rJyT20E1tbWzObmprXL0tKSWV5eNg8ePLC2r6ysmI2NDfpn9FtfX7euzdBOPje0G+J+xidw48aN4GI6mUyscFKopRhLPM92zM/P18Wc/vn8Qtf/1q1btqUt7hzFurgl4YLaCshvvSE5aCm09J89R953v7bPW67X85l1LnnmRQABBFoIUKxbYPFSBBBAIJcAxTqXPPMigAACLQQo1i2weCkCCCCQS4BinUueeRFAAIEWAuSsW2Dx0jIFQqNb5KjHnSMnulfm+5qr6qFAk2JMDpocuO3RbpKD174UVUoxJ2dtW2HOFSVAjpoceM4cfClvBj6zLmUluA4EEEDAI0Cx9uDQhAACCJQiQLEuZSW4DgQQQMAjQLH24NCEAAIIlCJAsS5lJbgOBBBAwCNAztqDQ1MZAk2ie+xHzX7ctqc1xn7kRPdsspwbpUCTYkyOmhy17c3RJEcduh95KTlscta2J4BznQqQoyZHnTNHHbofd1dvFj6z7kqaeRBAAIEAAYp1AB5dEUAAga4EKNZdSTMPAgggECBAsQ7AoysCCCDQlQDFuitp5kEAAQQCBMhZB+DRNY5Ak+geOWpy1LanLUaOOnQ/865y2ET3bE8A5zoVCM3B0n/DkEPPl0Pv6s1Cse5KmnmcAvJb8507d6ztq6urJjQHS39y3Clz3NYHN8FJPrNOgMqQCCCAQGwBinVsUcZDAAEEEghQrBOgMiQCCCAQW4BiHVuU8RBAAIEEAhTrBKgMiQACCMQWIGcdW5TxWgtoW1CG5mDpv2xkZ0PbsbKyYiT6SI599hz7+vq6jTb6OaJ70UkZsK2AFFOJ19kOaVv/w68Ys/vE1mzMwnljzi0Ys/PY3r54wax97R1yyFv5csi5c/Cpnx/7gxf/LMU6vikjthTQ9rOuC/XEUax3q8kO9o3Z23bOSo57a9Q59tTPj/PBi9zAZ9aRQRkOAQQQSCFAsU6hypgIIIBAZAGKdWRQhkMAAQRSCFCsU6gyJgIIIBBZgGIdGZThEEAAgRQC5KxTqDJmKwFtP+sY0StyxLPniPuew079/LCfdau3Oy/us8Dk8YaZ27HngCePq3/4kxy1xPNsh7TtVfm9fUd71XbrT77hzWHX/T057ht/8DfeHHjuHPHY529UjAOen5968bJZnLd/D2Dlhcu2pzLJOXLWSVgZtI3A5sam+a8P/sne5ZWfnxZaT466LtQBOWytv5YDl43/2Y87337koTlqdf1/9CPzb//8fevz+cWfe8N6PsVJPrNOocqYCCCAQGQBinVkUIZDAAEEUghQrFOoMiYCCCAQWYBiHRmU4RBAAIEUAhTrFKqMiQACCEQWIGcdGZTh2gt89ZfXjCRCbMfS8pL5i2+FRe+0LVSbRPfYD7rc/bAbRfc8W+hq6//bf/S35kGVCLEdKy+8YP70z75ja4p+juhedFIGbCuwtHTZHBzYc6zSpuWoQ3PYWv/UxSD0hwn9w3L42vpvb26YJ9v27wFsP3em7eM+8+sp1jPT0TGWwIMHVY71X/7BOtwXf/YXp//hgYQ5am0/bC2HS3//fuJ993tYFev//uE/Wp9P8/KX7OcTnOUz6wSoDIkAAgjEFqBYxxZlPAQQQCCBAMU6ASpDIoAAArEFKNaxRRkPAQQQSCBAsU6AypAIIIBAbAHSILFFGa+1wMrKC6ZOfVh6SptZOF8lQiyNckraZJtU17F4YRr9o79dCD/1+bm0tGxcqY+6zS4b/SzFOjopA7YVkGjU40f2HOtzZ6oca+B+1uaVN72XtLZWfSln0/GlnKUls7y8bHxfiqlz2J79tIOvP/T+C++/9rV3wvzX173ra+5+L2g/dCnI+wcH1jko1lYWTg5VQM2xyrfPQvazVuCkUIfsR516P+Wh57iD/ZX1NYHPj/o9AG3+SO18Zh0JkmEQQACBlAIU65S6jI0AAghEEqBYR4JkGAQQQCClAMU6pS5jI4AAApEEKNaRIBkGAQQQSClAdC+lLmM3ElBzrJKVdh1NctSuvj8+v1TF81ZXV62vkjaJ7l27ds3avrKyQg58rwqxB+TYg/2tK3PiZODzo34P4MRUKf9IsU6py9iNBN791u+YOl5le/VRMQ7JMdvGPXFOivFkYt9PW9o2NjbM1pY9Bz4/X/3DaeE55tz7gWvzB/ufWEvrH+WHScDz8+3f/5XpNr22weVLRR0dFOuOoJnGIxCYg1VzyJ6ppUm+8HL79m3rq+Q3ainUvhx2aI5XvX4pNAPezzvY37pyJ07uPknrd2KqlH/kM+uUuoyNAAIIRBKgWEeCZBgEEEAgpQDFOqUuYyOAAAKRBCjWkSAZBgEEEEgpQLFOqcvYCCCAQCQB0iCRIBkmQCAwB6vuZ61cmmSlfTlqief5ctgm9fUH5pjr6FxADjp1/2B/ZX2T74euzR+pnWIdCZJhAgQCc7Bajle7Mi1HreWA1fnJYXv3kw721xY4tb82f6R2inUkSIYJEMicgw3eTzn19R9UOeuQ/bwL7x/srz16mXP82uU1becz66ZSvA4BBBDIKECxzojP1AgggEBTAYp1UylehwACCGQUoFhnxGdqBBBAoKkAxbqpFK9DAAEEMgqQBsmIz9Q/FpBtJlPmgBXo4P2UU1+/RM9cx9EWsin9Es8f7O+yOTqfOgd/NE/i/6dYJwZm+AYCmXOwWo5aywFr+1lvffvPzd6jB1aIc59bMc9//Te9OeTSc9w7f3nL7Gzct97f4vIVs/hra979pIP9rTOfOJk5x3/iSoL+SLEO4qNzFIHMOdjg/ZSV65dCPXn4H1aqPTmr9K83zi94P2sp1Puf/Kv1/nbMz5hFJYce7G+d+cRJZf7g/cRPTJXyj3xmnVKXsRFAAIFIAhTrSJAMgwACCKQUoFin1GVsBBBAIJIAxToSJMMggAACKQUo1il1GRsBBBCIJEAaJBIkwwQIZM7BBu+nrFy/xPPq1IeFSNr6vh+2xPMk9WE7pE3bTzrY3zbxyXOpc/An50r457nD6kg4PkMjEC5w93vTeJttpP//UsgTW+u0ULzypr0t1tkP/rr6Uo9nfsmRSzzPdlTXr+Wwz1543ptjfvp4y5vjTt2/zlEH3L956cs2mXjnSn9+Gt4pv1k3hOJlGQVCc8ipLz0wx6vlsPerL3X4csyT3W1vjjt1fy1HreaYU69P6c9Pw/vnM+uGULwMAQQQyClAsc6pz9wIIIBAQwGKdUMoXoYAAgjkFKBY59RnbgQQQKChAMW6IRQvQwABBHIKkAbJqc/czQSUHHO9hahvP+dms8z+qsAcr5bDrqN3nhzz08cL3hx36v5ajrreQtal61tbV5+2531zSJtsoZrz+Wl4PxTrhlC8LKNA6H7EqS89cD/uej9rTw5bikkdj7PdR/WDYlHJcafur+3nXRfD/X3b1U8Lpb0l3tnSn5+Gd0qxbgjFyzIKBOaYk195aI73oCpke9vuy5RCV/B+1mqOWrt+953HaSn9+Wl4l3xm3RCKlyGAAAI5BSjWOfWZGwEEEGgoQLFuCMXLEEAAgZwCFOuc+syNAAIINBSgWDeE4mUIIIBATgHSIDn1mbuZQGCOudkkAa8KzfFK9M51NMkB972/695jnS/9+Wl4nxTrhlC8LKNAYI7ZhO5n3CDHbHw54tDrH3r/wP3Ap19qUfYTl3ik7RBbLYdt65fhHMU6AzpTthQgxzzuHHbuHHrLxzXVy/nMOpUs4yKAAAIRBSjWETEZCgEEEEglQLFOJcu4CCCAQEQBinVETIZCAAEEUglQrFPJMi4CCCAQUYA0SERMhkokQI7ZDTuGHLbE61xHF/fvmrvj83WxvnfvntnZ2bFOvbi4aJ4+fWp2d+27cy8sLJizZ8/Sv8d+V69eta59MSe1HOzQc8jcv8maYy/kjVAXaynUUpBdx8HBgZlMJtZmKeL71RcC6N9fP+vClnQydD9ibT/l3Dle5i87R17Ie4HPrAtZCC4DAQQQ8AlQrH06tCGAAAKFCFCsC1kILgMBBBDwCVCsfTq0IYAAAoUIUKwLWQguAwEEEPAJ1GkQiee5jqbRPfrbBfrgZ7/ygs6G7kcs0Td78tQYGTt3jpf53Q9bFzlqzd99dZ221MVaYncSz7Md0nb58mVvzvrSpUvO6J5ksOfm5pzjnzlzxhweHtLfEZ1s4nf//n0jjrZD+ssh8UrbcdRuayvmHDlqY0L2Y8YvzK+QN0JdrCUr7ctRS7svR621SSFx/TAQB1+bjE1/v58YudZP2rQcfSHPovsy2M+67Bzy0HPs7iez0xY+s+6Um8kQQACB2QQo1rO50QsBBBDoVIBi3Sk3kyGAAAKzCVCsZ3OjFwIIINCpAMW6U24mQwABBGYTqNMgss2pbwtUaXcdR1ukuhIhR9EzV39JeszPzzvTJvSfRh99fmLk89dy9K6xiznPftbupSghhzz0HLtbv9OWuljLm92Xw9Vy1A8fPvQWe+nviudJoZYctisnLG2Swx5zf8lR+4rxlStXnD7i+uGHHzrbXeN2+hRqk7Gfc979nMfurz2fHbXXxVrL4fre0NJGDtufg3b9oJE1Fj8tRy6v8eWoZXzfHFqOvqNnbfZp2M/amMkTu598M5P9sNPm0O3ynZ/lM+vOyZkQAQQQaC9AsW5vRg8EEECgcwGKdefkTIgAAgi0F6BYtzejBwIIINC5AMW6c3ImRAABBNoL1GkQLYer5XjJYc855WPkyDV/V+xRLkratBy98+JLaWA/a/bjzrkfeSHvg7pYSzTMFf2SNi0HTQ47LAcemqPWcuhajr6QZ9F9GezHHLYfM35hfu4ns9OWulhrOVwtx+sq9HInUuzJYftz2KE5as1fy9F3+sTNMhn7WafNEQ99P+rQHPosz2yCPnxmnQCVIRFAAIHYAhTr2KKMhwACCCQQoFgnQGVIBBBAILYAxTq2KOMhgAACCQQo1glQGRIBBBCILVCnQbQcrpbj1fajJoftz2GH5qg1fy1HH/uhij4e+1m7SdnPukrKVCHslDlst36nLXWx1nK4Wo6XHLZ/P+7UOWrNX8vRd/rEzTLZS1+epVe0Pu/+7htm59F963iLn7tirt/8wJgnd63t5vxLVTGp2lz//Y6zVbftvwvLAefOUX/+98Lu//Kh3Y6znxGoi7WWw5U3u+uQNvnN25f19bVJ/6HnsOUeQ/aj1vw0fy1H71pbzk8FpFA/2XzfwfHqtFA53yJVoT6ouk4c3aVf33Pk8oMq5P4dNJz+rMD8Z//K3xBAAAEEShSgWJe4KlwTAggg8IwAxfoZEP6KAAIIlChAsS5xVbgmBBBA4BkBivUzIPwVAQQQKFGgToNoOVwtByzRMdchSQUtBzz0HLbmF5pj1/y1HL1r7Tg/FZB4njFV6sNy1G0SzzN3La3VqaPonistIdG9vufIQ+/fLsfZZwTqYi3RMlc8TNq0HO/Yc9i5c9Sav5ajf+aZKO+v21/Qc7y+YniuKqZaDtrT//pNf/9333qlymFfsrpNc9hV08RRzOXaLv6SP4fd5Pp9Oe4u+ks80XZIxlzm993/p9Uvex7/un/A+gX3LyQHXhdrLYcrhdxVzGV9fG1S7LUcsNa/9Bx27hy15qfl6G3vsaLOheZ4pVC4ioH8RqzloJX+UqiT5rCV+UOvn/7V0z5xPPHO58bx+oSn5xOOzdAIIIAAApEEKNaRIBkGAQQQSClAsU6py9gIIIBAJAGKdSRIhkEAAQRSClCsU+oyNgIIIBBJoE6DaDnc1Dngvuewc+eoNT8tRx/pWUo3TGiOV6JjITlopX/yHLYyf70Fqyu1IDlu+oetf7onu9XIdbHWcrhajnfoOezSc9Sav5ajb/XE5HixZHVDcryJ+1+/WaF4csDBOezE16/moMc+f45n3jJnXay1HK682V1HjBx16Tns0nPUmp+Wo3etbTHn5fHz5WALzyGTw+73+pmLZbwT+My6jHXgKhBAAAGvAMXay0MjAgggUIYAxbqMdeAqEEAAAa8AxdrLQyMCCCBQhgDFuox14CoQQAABr0CdBtFyuFqOWNtPWcsBh/ZPvR+2dv+5c+ian5aj9z4hJTRKVtgVSOpBjpgc9t1er18JbwG5hrpYazlcLcfb9xy23L/8z3ZIob5y5YpzG1gp1LnvX5tfy9Hb7ruoc/KlDonn2Q5pKzwHTA673+tne+xynKuLtZbDlf2SfXsm+9qkCGo54NT9tf2wZf7JxB7kPfpB5rtGX1sJ96/l6HM8eK3mLHw/69D9oMlhV0+D/e03/Y08d46+1cOa7sV8Zp3OlpERQACBaAIU62iUDIQAAgikE6BYp7NlZAQQQCCaAMU6GiUDIYAAAukEKNbpbBkZAQQQiCZQp0G0HG7pOWItx63lsCWxIf+zHRJ76/v9azl6230Xda7w/axD95Mmh3237Bx2IW+GulhrOVwtx9v3HLZcvyt+14cc9dy9vzfndh7bH6nFC+an93arN8MTe/v8eWO2f8G7H3OjYuTZzzlK/4L3sw7dD5ocduE5bPs7p/OzdbHWcriu3zrlakvIEefOceeevy7Ue9vuh2d/v8qxOop1VcfrjfPt/2BRNVa/9UihLDkHmzuHm3h+ctiZnz/2s64WgAMBBBBAoJEA/4KxERMvQgABBPIKUKzz+jM7Aggg0EiAYt2IiRchgAACeQUo1nn9mR0BBBBoJFCnQbQcrkT7XIkQadP2U9Zy0PSfcy6WJE00P1PF85yHtEl0T1IftmOhiu4NPMfcKDooqRfbITayBasrLdPBftrksPP62x6LHOfqYi2F2JUzlrbSc9R9z4GHXn9djCWeZzukUJ9bqOJ3jnZpK3w/6NAcc9/7k8POnMO2va8ynKuL9dD3s86dg049/5ndKkPty1FLofblsKt6TY7a8e6T36gT56hDc+zksBM/v45Ho+vTfGbdtTjzIYAAAjMIUKxnQKMLAggg0LUAxbprceZDAAEEZhCgWM+ARhcEEECgawGKddfizIcAAgjMIFCnQYa+n/XQc9xGstK+HLXE81yH5LAlK5wxR5w7x9z3+clh3037/LreOx2fn6syvof37t0zsk2q7ZAvzEjWWuJ9tkMKvXwxhv799bt69aptaYdz7tPqS0faD6PU+3FnnP/dt14xO4/uW9dTCv31mx+Uv595Rj9z8T+tdl2frH+z1vazli/MTCb2DY2liO9XX8hwfcNRboj+Zft1/dB1Pp+80e2P77SIF56jJoedef3Yz7rztywTIoAAAr0V4F8w9nbpuHAEEBiTAMV6TKvNvSKAQG8FKNa9XTouHAEExiRAsR7TanOvCCDQW4E6DaLtZ90kuucSaBr9o79doAs/+8wDOjvyHDk57Lt6dNO3n3khb4U6Z13ItXAZCKQR2P4COWJPjpwctlLMLx+meS5bjlr/Zt2yDy9HoF8CUqhcX6qQ36gOqtshh+1Y01enP+jG7OeQ6fr0fNcTMh8CCCCAQHsBinV7M3oggAACnQtQrDsnZ0IEEECgvQDFur0ZPRBAAIHOBSjWnZMzIQIIINBegDRIezN69E3g/EvVFd+1X7W07VVtrrSDZLTPDbs/OWxl/e1PTudnyVl3Ts6EnQuMfD/rRj+MyGHbH8vqh7mWQz938bJ5/Okn1v4XLr9ofvXmX1nb2p7kN+u2Yry+fwIj3886NEe+8+iSebL5vmPdh5/D1u7/6d6+2f74Bw6f1x3n25+eb9+FHggggAACXQtQrLsWZz4EEEBgBgGK9QxodEEAAQS6FqBYdy3OfAgggMAMAhTrGdDoggACCHQtQBqka3Hm615g5PtZN4rueXLoY89ha/cv0T1j7KkPie7FOshZx5JknHIF2M866X7eoTnkve1Pzc6j+9bnRwqllmPW+l+/+UHQ/X/37Te9OWptfu36m+aw+c3a+ohwclAC7Gft/oZmhP28Q3PI+7sb3hy3lmPW+pvA9ZcvvPhy1Nr82vU3fa/xmXVTKV6HAAIIZBSgWGfEZ2oEEECgqQDFuqkUr0MAAQQyClCsM+IzNQIIINBUgGLdVIrXIYAAAhkFSINkxGfqjgTYz7qCvmvHjrCfd2gOeW9bylC1e5/lOIru+XLMWn8TuP7TrLQ7R63NHyuHTbG2PCCcGpiA/McFDhz3JG3yHxeYOIqZtNHf63fu4peMxNNshxQqySFLvM12SKGT16TsH7p+qa/f5mI7R7G2qXBuWALsZ139MHIsaW1T/aBy/ZdyGuSwU+eQg3PMgeufOkfuWJlTp+dPneEEAggggEBxAhTr4paEC0IAAQROC1CsT5twBgEEEChOgGJd3JJwQQgggMBpAYr1aRPOIIAAAsUJkAYpbkm4oOgC7GftTnuIjcQTA3LYqXPIwTnmwPVPnSNv+rxTrJtK8br+CpCjTpojT51DDs1hh+boU+fIm76xKNZNpXhdfwUC9zOuvzATkEMeev/UOWRtP2gth81+1v1963LlCCCAQO8E+BeMvVsyLhgBBMYoQLEe46pzzwgg0DsBinXvlowLRgCBMQpQrMe46twzAgj0ToA0SO+WjAtuLRC4n3FoDnno/VPnkLX9oLUcNvtZt37H0AGBPAK//vKH5vG+PXt34bmz5tKLZ8zmR/b2pc+fNQ8/OaC/x+8rv/XVpPtRh+a4zUdvG7P7xP7wLZyvvhS0YMzOY3v74oVqP+5vJt2P2z7x6bP8Zn3ahDMDE5BC/T9n7Bs6/2TVdvjRxPxwzl6sX/7ImP+dHNDf41f8ftZSqCeOYr1bPewH1X84YW/b+dTvPLpvnmy+72h/tf5Btf3xDxztr9eF3tff0fHUaT6zPkXCCQQQQKA8AYp1eWvCFSGAAAKnBCjWp0g4gQACCJQnQLEub024IgQQQOCUAMX6FAknEEAAgfIESIOUtyZcUWQBiedJ6sN2HEX3JPVhOyS6N/fJPP09fsXvZy3xPEl92I6j6J6tTc5V0b3UOXLX1M+ep1g/K8LfBycgOWqJ59kOaZMctcTzbIcUavr7/UJz0Kn71zlqiefZDslY71WVfN/RXrWF7qet9bddlu0cxdqmwrlBCcgXXshR2//JIkaOPHUOOXg/a/nCiydHXRdqTw47dY686ZuNz6ybSvE6BBBAIKMAxTojPlMjgAACTQUo1k2leB0CCCCQUYBinRGfqRFAAIGmAhTrplK8DgEEEMgoQBokIz5TdyMgWWly1HbrGDny1Dnk4P2sq6y085A2ie55ctipc+TOa3umgWL9DAh/HZ5AaI76nXp3zLMemDNVm/zPdwy3/3ffulz0ftbvvv1NI/FC2yE/aOSHgcTzbIcU6uQ5cNvElnMUawsKp4YlELqftTG+Qjssq1nuJnUOeX93I+l+0qE57tD+Tc35zLqpFK9DAAEEMgpQrDPiMzUCCCDQVIBi3VSK1yGAAAIZBSjWGfGZGgEEEGgqQLFuKsXrEEAAgYwCpEEy4jN1NwKh+1l3c5X9nSV1DnlvW8rUq1ago+idMa9b26fRu7L7Wy/ccpJibUHh1LAEQvej1jPUw/Jqezepc8jaftB9n7+pN8W6qRSv661A6H7WFGv/0pe+n3VoDjp1f7/ucSufWR9b8CcEEECgWAGKdbFLw4UhgAACxwIU62ML/oQAAggUK0CxLnZpuDAEEEDgWIBifWzBnxBAAIFiBUiDFLs0XFgsgdD9rGNdx1DHKX0/69D9sFP3b/pcUKybSvG63gqE7mfd2xvv6MKHnoPWctzX//j7nUhTrDthZpKcAuxnnVZ/7PtZp9U9Hp3PrI8t+BMCCCBQrADFutil4cIQQACBYwGK9bEFf0IAAQSKFaBYF7s0XBgCCCBwLECxPrbgTwgggECxAqRBil0aLiyWAPtZx5K0jzP2/aztKvHPzh1WR/xhGRGBcgS+Ue1bL9uk2g75wozksCXeZzuk0H/n4zO2Js51JMD6TaH5zbqjB45p8gmwn3U++xgzs35TRT6zjvE0MQYCCCCQWIBinRiY4RFAAIEYAhTrGIqMgQACCCQWoFgnBmZ4BBBAIIYAxTqGImMggAACiQVIgyQGZvj8AuxnnX8NQq6A9ZvqUaxDniL69kKA/ax7sUzOi2T9pjQUa+cjQsNQBNjPut8ryfpN14/PrPv9HHP1CCAwEgGK9UgWmttEAIF+C1Cs+71+XD0CCIxEgGI9koXmNhFAoN8CFOt+rx9XjwACIxEgDTKShR7zbbKfdb9Xn/Wbrh/Fut/PMVffQODSi2fM4UcT6yulTcvxGsN+1la8jk6yflNoinVHDxzT5BNgP+R89jFmZv2minxmHeNpYgwEEEAgsQDFOjEwwyOAAAIxBCjWMRQZAwEEEEgsQLFODMzwCCCAQAwBinUMRcZAAAEEEguQBkkMzPD5BdgPOf8ahFwB6zfVo1iHPEX07YWAlqPWcry9uMkBXyTrN11civWAH3JubSrAfsj9fhJYv+n68Zl1v59jrh4BBEYiQLEeyUJzmwgg0G8BinW/14+rRwCBkQhQrEey0NwmAgj0W4Bi3e/14+oRQGAkAqRBRrLQY75N9kPu9+qzftP1o1j3+zkexdXfuHHDPHjwwHqvKysrZmNjw2xublrbl5aWzPIby2bH0f8nqv7/Lv0vuvsbc8s6Nie7ETh84zeC1u/GjeWg5+fWrTLWn2LdzfPGLAECUqhv375tHeHatWtma2vL3Llzx9q+urpqJpNJUH/rwJzsTID1n1LzmXVnjxwTIYAAArMLUKxnt6MnAggg0JkAxbozaiZCAAEEZhegWM9uR08EEECgMwGKdWfUTIQAAgjMLjB3WB2zd6cnAukFgqN7y8OIbqWXLnMG1n+6LkT3ynw+uaoTApKjlnie7ZifnzfLVTGWeJ7tkLbQ/rZxOdedQOj6hfbv7k79M1Gs/T60FiAgX3hJmaPWctgFEIz6Elj/6fLzmfWo3wbcPAII9EWAYt2XleI6EUBg1AIU61EvPzePAAJ9EaBY92WluE4EEBi1AMV61MvPzSOAQF8EyFn3ZaVGfJ1ra2v+LVADc9QS7/Ntwbq+vj5i/fy3zvpP14Binf9Z5AoQQAABVYCPQVQiXoAAAgjkF6BY518DrgABBBBQBSjWKhEvQAABBPILUKzzrwFXgAACCKgCFGuViBcggAAC+QUo1vnXgCtAAAEEVAGKtUrECxBAAIH8AhTr/GvAFSCAAAKqAMVaJeIFCCCAQH4BinX+NeAKEEAAAVWAYq0S8QIEEEAgvwDFOv8acAUIIICAKvB/aJOBfGhU/W4AAAAASUVORK5CYII=;" vertex="1" parent="WIyWlLk6GJQsqaUBKTNV-1">
          <mxGeometry x="747.41" y="674" width="42.59" height="40.83" as="geometry" />
        </mxCell>
        <object placeholders="1" c4Name="API JavaMail" c4Type="API" c4Description=" API do projeto Jakarta Apache: Commons-email(https://www.devmedia.com.br/utilizando-a-api-commons-email-para-enviar-e-mails/3306)" label="&lt;font style=&quot;font-size: 16px&quot;&gt;&lt;b&gt;%c4Name%&lt;/b&gt;&lt;/font&gt;&lt;div&gt;[%c4Type%]&lt;/div&gt;&lt;br&gt;&lt;div&gt;&lt;font style=&quot;font-size: 11px&quot;&gt;&lt;font color=&quot;#cccccc&quot;&gt;%c4Description%&lt;/font&gt;&lt;/div&gt;" id="1ZPPYAJS0Nbkx732ppPT-12">
          <mxCell style="rounded=1;whiteSpace=wrap;html=1;labelBackgroundColor=none;align=center;arcSize=10;metaEdit=1;resizable=0;points=[[0.25,0,0],[0.5,0,0],[0.75,0,0],[1,0.25,0],[1,0.5,0],[1,0.75,0],[0.75,1,0],[0.5,1,0],[0.25,1,0],[0,0.75,0],[0,0.5,0],[0,0.25,0]];strokeWidth=1;fontFamily=Georgia;" vertex="1" parent="WIyWlLk6GJQsqaUBKTNV-1">
            <mxGeometry x="560" y="1000" width="240" height="120" as="geometry" />
          </mxCell>
        </object>
        <mxCell id="1ZPPYAJS0Nbkx732ppPT-13" value="" style="endArrow=classic;startArrow=classic;html=1;rounded=0;fontFamily=Georgia;exitX=1;exitY=1;exitDx=0;exitDy=0;entryX=0;entryY=0.25;entryDx=0;entryDy=0;entryPerimeter=0;" edge="1" parent="WIyWlLk6GJQsqaUBKTNV-1" source="WgaqOi_y15p2v3Q_tbm1-21" target="1ZPPYAJS0Nbkx732ppPT-12">
          <mxGeometry width="50" height="50" relative="1" as="geometry">
            <mxPoint x="600" y="790" as="sourcePoint" />
            <mxPoint x="650" y="740" as="targetPoint" />
            <Array as="points">
              <mxPoint x="430" y="1030" />
            </Array>
          </mxGeometry>
        </mxCell>
        <mxCell id="1ZPPYAJS0Nbkx732ppPT-14" value="" style="shape=image;verticalLabelPosition=bottom;labelBackgroundColor=default;verticalAlign=top;aspect=fixed;imageAspect=0;image=https://cdn.iconscout.com/icon/free/png-256/java-60-1174953.png;" vertex="1" parent="WIyWlLk6GJQsqaUBKTNV-1">
          <mxGeometry x="160" y="780" width="58" height="58" as="geometry" />
        </mxCell>
        <mxCell id="1ZPPYAJS0Nbkx732ppPT-16" value="" style="shape=image;verticalLabelPosition=bottom;labelBackgroundColor=default;verticalAlign=top;aspect=fixed;imageAspect=0;image=https://cdn.iconscout.com/icon/free/png-256/email-1247-917034.png;imageBorder=none;imageBackground=#ADC8D0;fillStyle=auto;" vertex="1" parent="WIyWlLk6GJQsqaUBKTNV-1">
          <mxGeometry x="768.2" y="990" width="38" height="38" as="geometry" />
        </mxCell>
      </root>
    </mxGraphModel>
  </diagram>
</mxfile>
